<?xml version="1.0" encoding="utf-8"?>
<!-- Generator: Adobe Illustrator 18.1.0, SVG Export Plug-In . SVG Version: 6.00 Build 0)  -->
<!DOCTYPE svg PUBLIC "-//W3C//DTD SVG 1.1//EN" "http://www.w3.org/Graphics/SVG/1.1/DTD/svg11.dtd">
<svg version="1.1" id="Layer_1" xmlns="http://www.w3.org/2000/svg" xmlns:xlink="http://www.w3.org/1999/xlink" x="0px" y="0px"
	 viewBox="0 0 887 795.9" enable-background="new 0 0 887 795.9" xml:space="preserve">
<ellipse fill="#D1D3D4" cx="441.3" cy="737.2" rx="49.3" ry="21.7"/>
<g>
	<path fill="#F4E9B2" stroke="#C9AD77" stroke-width="5.478" stroke-miterlimit="10" d="M424,691.3l7.7,35c0,0-10.2,13.4-2.2,13.4
		c5.8,0,10.7-13.4,10.7-13.4s5.4,13.4,8.5,13.4c9.7,0,1.6-13.4,1.6-13.4l9.4-35H424z"/>
	<line fill="#F4E9B2" stroke="#C9AD77" stroke-width="5.478" stroke-miterlimit="10" x1="440.1" y1="676.1" x2="440.1" y2="726.8"/>
	<path fill="#603913" stroke="#3C2415" stroke-width="5" stroke-miterlimit="10" d="M358.1,508c0,0,27.2,36,59.2,44.3
		s102-28.6,102.7-46.7c0.7-18.1,41.3-110.3,41.3-110.3L448,368l-89.9,29C358.1,396.9,315.6,470.5,358.1,508z"/>
	<polygon fill="#F4E9B2" stroke="#C9AD77" stroke-width="5" stroke-miterlimit="10" points="395.4,592.6 408,634 400.3,640 
		382.2,595.7 382.9,570.6 400.6,559 	"/>
	<path fill="#F4E9B2" stroke="#C9AD77" stroke-width="5" stroke-miterlimit="10" d="M496.7,589l20.8,37.8c0,0,11,19.5,2.8,23
		c-5.1,2.2-10.1-15.6-10.1-15.6l-25.9-39.5l-4.5-24.7l15-15.1L496.7,589z"/>
	<path fill="#414042" stroke="#000000" stroke-width="5" stroke-miterlimit="10" d="M411.4,606c0,0-27.4,26.7-38.7,73.3
		c0,0,107.4,62.7,126.1-6c0,0,3.3-37.3-30.7-67.3C468,606,428.9,583,411.4,606z"/>
	<path fill="#F4E9B2" stroke="#C9AD77" stroke-width="5" stroke-miterlimit="10" d="M427.3,503.1v33.6c0,0,10.7,23.8,24.3,0v-39.4
		L427.3,503.1z"/>
	<circle fill="#F4E9B2" stroke="#C9AD77" stroke-width="5" stroke-miterlimit="10" cx="444.4" cy="412.5" r="93"/>
	<path fill="#603913" stroke="#3C2415" stroke-width="5" stroke-miterlimit="10" d="M400.3,330.6c0,0-93.7,116.7-21.7,193.7
		c0,0-71-19.5-62-111.8S400.3,330.6,400.3,330.6z"/>
	<path fill="#F4E9B2" stroke="#C9AD77" stroke-width="5" stroke-miterlimit="10" d="M427.3,450.1c0,0,14,10.8,28.7,0"/>
	<path fill="none" stroke="#3C2415" stroke-width="5" stroke-miterlimit="10" d="M372.6,420.2c0,0,40.6-13.7,38.7,7.1"/>
	<path fill="none" stroke="#3C2415" stroke-width="5" stroke-miterlimit="10" d="M513.1,424.9c0,0-37.5-20.8-39.3,0"/>
	<path fill="#F4E9B2" stroke="#C9AD77" stroke-width="5" stroke-miterlimit="10" d="M400.6,461.3c0,0,39.5,36.4,76,0"/>
	<path fill="#739E40" stroke="#387338" stroke-width="5" stroke-miterlimit="10" d="M424,524.3c0,0-40.2-3-42.8,46.3
		c0,0,10.1,8,19.4,6l6-8.7l4.7,38c0,0,32.6,16.7,56.6,0l5.9-40.7c0,0,2.8,4.7,2.8,8.7s20.8,3.7,22.1-5.1c1.3-8.9,1.9-37.5-42.7-44.5
		C456,524.3,442.5,551.6,424,524.3z"/>
	<path fill="#603913" stroke="#3C2415" stroke-width="5" stroke-miterlimit="10" d="M400.6,319.5c0,0,14,56.8,78,71.8s56,47,49,79
		s-35,66-35,66s55.1-22.4,75.2-60.8c32.8-62.9-3.2-138.2-40.1-156C494.9,303.7,462.6,294.7,400.6,319.5z"/>
	<g>
		<path fill="#E19CC5" d="M424,326c0,0,0.7,0.6,1.9,1.8c1.2,1.1,3.1,2.8,5.4,4.8c2.4,2,5.3,4.5,8.7,7.2c3.4,2.7,7.3,5.7,11.6,8.8
			c4.3,3.1,9.1,6.3,14.3,9.5c5.2,3.2,10.8,6.3,16.8,9.2c5.9,2.9,12.3,5.5,18.9,7.5l2.5,0.8l2.5,0.7c1.7,0.5,3.4,0.9,5.2,1.4
			c3.6,1,7,2.3,10.4,3.8c6.8,3,13.1,7.3,18.2,12.5c2.6,2.6,4.9,5.5,6.8,8.6c1.9,3.1,3.5,6.3,4.8,9.5c1.3,3.2,2.2,6.5,2.9,9.8
			c0.7,3.3,1.1,6.5,1.4,9.6c0.2,3.1,0.3,6.2,0.3,9.1c-0.1,2.9-0.3,5.8-0.6,8.5c-0.6,5.4-1.5,10.3-2.5,14.6c-1,4.3-2,8-3,11
			c-0.9,3-1.8,5.3-2.3,6.9c-0.6,1.6-0.8,2.4-0.8,2.4s0.1-0.9,0.5-2.5c0.4-1.6,0.9-4,1.6-7.1c0.7-3.1,1.4-6.8,2-11.1
			c0.6-4.3,1.2-9.1,1.5-14.4c0.1-2.6,0.2-5.4,0.1-8.2c-0.1-2.8-0.3-5.8-0.6-8.8c-0.4-3-0.9-6-1.7-9c-0.8-3-1.7-6.1-3-9.1
			c-2.5-6-6.1-11.6-10.9-16.3c-4.7-4.8-10.5-8.6-16.8-11.4c-3.1-1.4-6.4-2.7-9.7-3.6c-1.7-0.5-3.4-1-5.1-1.4l-2.6-0.7l-2.6-0.8
			c-6.8-2.2-13.3-5.1-19.3-8.2c-6.1-3.1-11.6-6.6-16.8-10c-5.2-3.4-9.8-7-14-10.4c-4.2-3.4-7.9-6.7-11.1-9.6c-3.2-3-5.9-5.7-8.1-7.9
			c-2.2-2.2-3.8-4.1-5-5.3C424.6,326.6,424,326,424,326z"/>
	</g>
	<g>
		<path fill="none" stroke="#000000" stroke-width="5" stroke-miterlimit="10" d="M420.6,408.6c0,0,1,25.5-3,34.4s-38.5,7.8-49,5.5
			c-10.5-2.2-27-8.1-17.2-46.6L420.6,408.6z"/>
		<path fill="none" stroke="#000000" stroke-width="5" stroke-miterlimit="10" d="M464.4,408.6c0,0-1,25.5,3,34.4s38.5,7.8,49,5.5
			c10.5-2.2,27-8.1,17.2-46.6L464.4,408.6z"/>
		<g>
			<path d="M538.4,397.3l-74,10l-0.1,3.4l0.1-4.6c0,0-25.1-7.5-43.8,0l0,2.2l0-1l-74-12c0,0-1.7,4.7,0,7.3c1.6,2.6,72,9.7,74.1,9.9
				l0,0.2c0,0,23.2-8.1,43.6,0.7l0-0.9c0.4,0,72.4-5.2,74.1-7.9C540.1,402,538.4,397.3,538.4,397.3z"/>
			<path opacity="0.3" fill="#FFFFFF" d="M351.4,396.9l65.9,11l-64.9,30.9C352.4,438.8,344.2,433.9,351.4,396.9z"/>
			<path opacity="0.3" fill="#FFFFFF" d="M464.4,410.3c0,0-2.7,28.5,3,32.7c5.7,4.2,66.2-41.1,66.2-41.1L464.4,410.3z"/>
		</g>
	</g>
	<path d="M426.1,729c0,0,7.2,8.1,14,4c0,0-4.5,12.4-12.9,10.8S426.1,729,426.1,729z"/>
	<path d="M454.1,729c0,0-7.2,8.1-14,4c0,0,4.5,12.4,12.9,10.8S454.1,729,454.1,729z"/>
	<line fill="#739E40" stroke="#387338" stroke-width="5" stroke-miterlimit="10" x1="413.2" y1="525.4" x2="424" y2="610.6"/>
	<line fill="#739E40" stroke="#387338" stroke-width="5" stroke-miterlimit="10" x1="464.3" y1="526" x2="451.6" y2="613.4"/>
	<line fill="#739E40" stroke="#387338" stroke-width="5" stroke-miterlimit="10" x1="439.5" y1="536.4" x2="438.6" y2="613.4"/>
</g>
<g opacity="0.8">
	<rect x="521.6" y="77.8" fill="#414042" width="102.5" height="9.4"/>
	<rect x="521.6" y="98.5" fill="#414042" width="66.3" height="9.4"/>
	<rect x="521.6" y="139.9" fill="#414042" width="100" height="9.4"/>
	<rect x="521.6" y="119.2" fill="#414042" width="89.7" height="9.4"/>
</g>
<g opacity="0.8">
	<g>
		<path fill="#414042" d="M307.3,133.7c-4.3-6.2-6.9-13.8-6.9-22c0-21.3,17.4-38.7,38.7-38.7s38.7,17.4,38.7,38.7
			c0,6.1-1.4,11.8-3.9,17c3.1,1.9,5.9,4.2,8.4,7.1c4-7.1,6.3-15.3,6.3-24.1c0-27.3-22.2-49.5-49.5-49.5s-49.5,22.2-49.5,49.5
			c0,11.7,4.1,22.4,10.9,30.9C302.8,139.7,305,136.5,307.3,133.7z"/>
	</g>
	<path fill="#414042" d="M315.2,122.3v34.2c0,0-22.5,6.4-22.5-20C292.7,116.8,315.2,122.3,315.2,122.3z"/>
	<path fill="#414042" d="M360.6,122.3v34.2c0,0,22.5,6.4,22.5-20C383.1,116.8,360.6,122.3,360.6,122.3z"/>
</g>
<g opacity="0.8">
	<g>
		<path fill="#414042" d="M173,153.3H50.9V74.2H173V153.3z M59.7,144.5h104.6V83H59.7V144.5z"/>
	</g>
	<g>
		<polygon fill="#414042" points="67.6,136.3 88,105 107,127 130.5,113.8 158.1,136.3 		"/>
	</g>
	<g>
		<circle fill="#414042" cx="141.6" cy="100.7" r="9.7"/>
	</g>
</g>
<g opacity="0.8">
	<g>
		<path fill="#414042" d="M805.1,154.6l-1.9-0.1c-4.9-0.2-48.3-2.1-60.4-17.4c-3.5-4.4-4.8-7.7-4.3-10.6c0.3-1.8,1.3-3.3,2.9-4.3
			c4.2-2.7,11.5-0.5,14.6,0.6c-2.8-2.4-5.6-4.8-8-6.9c-7.9-6.8-15.4-13.2-18.7-16.7c-3.6-3.8-4-7.1-3.7-9.1c0.3-2.3,1.6-4.4,3.7-5.7
			c2.1-1.4,4.9-1.9,7.7-1.5c9.3,1.4,19.2,10.2,26.5,16.6c1.5,1.4,3.3,2.9,4.6,4c0.6-0.6,1.2-1.2,1.7-1.8c3.2-3.4,7.7-8,11.6-10.6
			c2.1-1.3,3.9-2,5.6-2.2c6.7-0.6,16.7,10.2,19.6,13.5c4.8,5.5,13.4,16.8,17,30.5l0.6,2.4L805.1,154.6z M748,129.5
			c0.4,0.6,0.9,1.3,1.6,2.2c3.9,4.9,14.6,9,30.1,11.6c9.5,1.6,18.2,2.2,21.9,2.4l12.9-13c-3.3-10.5-9.9-19.3-13.7-23.7
			c-6.3-7.4-11.6-11-13.4-11.5c-0.2,0.1-0.7,0.3-1.6,0.8c-3.1,2-7.1,6.2-10.1,9.3c-2.5,2.6-3.7,3.9-4.8,4.6
			c-3.7,2.4-6.9-0.5-13.4-6.3c-6.1-5.4-15.3-13.5-22-14.6c-0.6-0.1-1.1,0-1.4,0c0.2,0.4,0.6,1,1.3,1.8c2.9,3.2,10.6,9.7,18,16
			c20.6,17.5,22.4,19.7,22.6,22.7c0.1,1.3-0.4,2.5-1.3,3.4c-0.3,0.3-0.6,0.5-0.9,0.7c0,0,0,0,0,0c-2.4,1.6-5.7,1.1-12.5-1.6
			c-3.4-1.4-7-3.1-8.1-3.7C752.1,130.4,749.8,129.8,748,129.5z"/>
	</g>
	<g>
		
			<rect x="710.2" y="92.1" transform="matrix(0.9582 -0.2861 0.2861 0.9582 2.3335 208.7499)" fill="#414042" width="10.7" height="8.6"/>
	</g>
	<g>
		
			<rect x="709.5" y="77.1" transform="matrix(0.8809 0.4733 -0.4733 0.8809 123.702 -328.8607)" fill="#414042" width="11.6" height="8.6"/>
	</g>
	<g>
		
			<rect x="722.1" y="66.2" transform="matrix(0.919 -0.3943 0.3943 0.919 30.4096 292.2092)" fill="#414042" width="8.6" height="11.8"/>
	</g>
</g>
<line opacity="0.8" fill="none" stroke="#13ADBC" stroke-width="2" stroke-miterlimit="10" stroke-dasharray="10" x1="339.2" y1="230.9" x2="358.1" y2="411.7"/>
<line opacity="0.8" fill="none" stroke="#13ADBC" stroke-width="2" stroke-miterlimit="10" stroke-dasharray="10" x1="112" y1="221.6" x2="331" y2="388.9"/>
<line opacity="0.8" fill="none" stroke="#13ADBC" stroke-width="2" stroke-miterlimit="10" stroke-dasharray="10" x1="766.1" y1="230.9" x2="527" y2="640"/>
<line opacity="0.8" fill="none" stroke="#13ADBC" stroke-width="2" stroke-miterlimit="10" stroke-dasharray="10" x1="561.3" y1="230.9" x2="521.6" y2="635.9"/>
<rect x="31.9" y="179.7" fill="none" width="162" height="24.9"/>
<text transform="matrix(1 0 0 1 81.4759 197.9095)" fill="#696969" font-family="'OpenSans-Light'" font-size="24">Visual</text>
<rect x="258.2" y="179.7" fill="none" width="162" height="24.9"/>
<text transform="matrix(1 0 0 1 293.8299 197.9095)" fill="#696969" font-family="'OpenSans-Light'" font-size="24">Auditory</text>
<rect x="491.8" y="179.7" fill="none" width="162" height="24.9"/>
<text transform="matrix(1 0 0 1 512.8303 197.9095)" fill="#696969" font-family="'OpenSans-Light'" font-size="24">Read/Write</text>
<rect x="693.7" y="179.7" fill="none" width="162" height="24.9"/>
<text transform="matrix(1 0 0 1 715.6626 197.9095)" fill="#696969" font-family="'OpenSans-Light'" font-size="24">Kinesthetic</text>
</svg>
