<?xml version="1.0" encoding="utf-8"?>
<!-- Generator: Adobe Illustrator 18.1.0, SVG Export Plug-In . SVG Version: 6.00 Build 0)  -->
<!DOCTYPE svg PUBLIC "-//W3C//DTD SVG 1.1//EN" "http://www.w3.org/Graphics/SVG/1.1/DTD/svg11.dtd">
<svg version="1.1" id="Layer_1" xmlns="http://www.w3.org/2000/svg" xmlns:xlink="http://www.w3.org/1999/xlink" x="0px" y="0px"
	 viewBox="0 0 887 792" enable-background="new 0 0 887 792" xml:space="preserve">
<g>
	
		<rect x="442.1" y="612" fill="#414042" stroke="#000000" stroke-width="3.8547" stroke-miterlimit="10" width="8.7" height="101.4"/>
	<g>
		<g>
			<path fill="#F4E9B2" stroke="#C9AD77" stroke-width="5.478" stroke-miterlimit="10" d="M419.6,628.5l-4.1,35.6c0,0-7,14,0.6,16.6
				c5.4,1.9,7.5-13.8,7.5-13.8l14.3-37.7L419.6,628.5z"/>
			<path d="M411.6,667c0,0,5.7,9.2,13.1,6.3c0,0-3.5,14.3-11.5,11.3S411.6,667,411.6,667z"/>
		</g>
		<g>
			<path fill="#F4E9B2" stroke="#C9AD77" stroke-width="5.478" stroke-miterlimit="10" d="M430.3,651.8l7.7,35
				c0,0-10.2,13.4-2.2,13.4c5.8,0,10.7-13.4,10.7-13.4l1.3-40.3L430.3,651.8z"/>
			<path d="M432.5,689.5c0,0,7.2,8.1,14,4c0,0-4.5,12.4-12.9,10.8S432.5,689.5,432.5,689.5z"/>
		</g>
		<path fill="#603913" stroke="#3C2415" stroke-width="5" stroke-miterlimit="10" d="M361,502.1c0,0,27.2,36,59.2,44.3
			c32,8.3,102-28.6,102.7-46.7c0.7-18.1,41.3-110.3,41.3-110.3l-113.3-27.3l-89.9,29C361,391.1,318.5,464.6,361,502.1z"/>
		<ellipse stroke="#5DA2D1" stroke-width="5" stroke-miterlimit="10" cx="399" cy="413.8" rx="6" ry="3.9"/>
		<path fill="#414042" stroke="#000000" stroke-width="3.8547" stroke-miterlimit="10" d="M414.3,595.9c0,0-27.4,15.8-38.7,43.6
			c0,0,107.4,37.2,126.1-3.6c0,0,3.3-22.2-30.7-40C470.9,595.9,431.8,582.3,414.3,595.9z"/>
		<path fill="#F4E9B2" stroke="#C9AD77" stroke-width="5" stroke-miterlimit="10" d="M430.2,497.2v33.6c0,0,10.7,23.8,24.3,0v-39.4
			L430.2,497.2z"/>
		<ellipse stroke="#5DA2D1" stroke-width="5" stroke-miterlimit="10" cx="398.3" cy="415.6" rx="5.3" ry="5.8"/>
		<circle stroke="#5DA2D1" stroke-width="5" stroke-miterlimit="10" cx="493" cy="417.7" r="5.7"/>
		<circle fill="#F4E9B2" stroke="#C9AD77" stroke-width="5" stroke-miterlimit="10" cx="447.4" cy="406.6" r="93"/>
		<path fill="#603913" stroke="#3C2415" stroke-width="5" stroke-miterlimit="10" d="M403.2,324.7c0,0-93.7,116.7-21.7,193.7
			c0,0-71-19.5-62-111.8S403.2,324.7,403.2,324.7z"/>
		<path fill="#F4E9B2" stroke="#C9AD77" stroke-width="5" stroke-miterlimit="10" d="M430.2,444.2c0,0,14,10.8,28.7,0"/>
		<path fill="none" stroke="#3C2415" stroke-width="5" stroke-miterlimit="10" d="M375.5,414.3c0,0,40.6-13.7,38.7,7.1"/>
		<path fill="none" stroke="#3C2415" stroke-width="5" stroke-miterlimit="10" d="M516,419c0,0-37.5-20.8-39.3,0"/>
		<path fill="#739E40" stroke="#387338" stroke-width="5" stroke-miterlimit="10" d="M426.9,518.4c0,0-40.2-3-42.8,46.3
			c0,0,10.1,8,19.4,6l6-8.7l4.7,38c0,0,32.6,16.7,56.6,0l5.9-40.7c0,0,2.8,4.7,2.8,8.7s20.8,3.7,22.1-5.1
			c1.3-8.9,1.9-37.5-42.7-44.5C458.9,518.4,445.4,545.7,426.9,518.4z"/>
		<path fill="#603913" stroke="#3C2415" stroke-width="5" stroke-miterlimit="10" d="M403.5,313.6c0,0,14,56.8,78,71.8s56,47,49,79
			s-35,66-35,66s55.1-22.4,75.2-60.8c32.8-62.9-3.2-138.2-40.1-156C497.8,297.8,465.5,288.8,403.5,313.6z"/>
		<g>
			<path fill="#E19CC5" d="M426.9,320.1c0,0,0.7,0.6,1.9,1.8c1.2,1.1,3.1,2.8,5.4,4.8c2.4,2,5.3,4.5,8.7,7.2
				c3.4,2.7,7.3,5.7,11.6,8.8c4.3,3.1,9.1,6.3,14.3,9.5c5.2,3.2,10.8,6.3,16.8,9.2c5.9,2.9,12.3,5.5,18.9,7.5l2.5,0.8l2.5,0.7
				c1.7,0.5,3.4,0.9,5.2,1.4c3.6,1,7,2.3,10.4,3.8c6.8,3,13.1,7.3,18.2,12.5c2.6,2.6,4.9,5.5,6.8,8.6c1.9,3.1,3.5,6.3,4.8,9.5
				c1.3,3.2,2.2,6.5,2.9,9.8c0.7,3.3,1.1,6.5,1.4,9.6c0.2,3.1,0.3,6.2,0.3,9.1c-0.1,2.9-0.3,5.8-0.6,8.5c-0.6,5.4-1.5,10.3-2.5,14.6
				c-1,4.3-2,8-3,11c-0.9,3-1.8,5.3-2.3,6.9c-0.6,1.6-0.8,2.4-0.8,2.4s0.1-0.9,0.5-2.5c0.4-1.6,0.9-4,1.6-7.1
				c0.7-3.1,1.4-6.8,2-11.1c0.6-4.3,1.2-9.1,1.5-14.4c0.1-2.6,0.2-5.4,0.1-8.2c-0.1-2.8-0.3-5.8-0.6-8.8c-0.4-3-0.9-6-1.7-9
				c-0.8-3-1.7-6.1-3-9.1c-2.5-6-6.1-11.6-10.9-16.3c-4.7-4.8-10.5-8.6-16.8-11.4c-3.1-1.4-6.4-2.7-9.7-3.6c-1.7-0.5-3.4-1-5.1-1.4
				l-2.6-0.7l-2.6-0.8c-6.8-2.2-13.3-5.1-19.3-8.2c-6.1-3.1-11.6-6.6-16.8-10c-5.2-3.4-9.8-7-14-10.4c-4.2-3.4-7.9-6.7-11.1-9.6
				c-3.2-3-5.9-5.7-8.1-7.9c-2.2-2.2-3.8-4.1-5-5.3C427.5,320.7,426.9,320.1,426.9,320.1z"/>
		</g>
		<line fill="#739E40" stroke="#387338" stroke-width="5" stroke-miterlimit="10" x1="416.1" y1="519.5" x2="426.9" y2="604.8"/>
		<line fill="#739E40" stroke="#387338" stroke-width="5" stroke-miterlimit="10" x1="467.2" y1="520.1" x2="454.5" y2="607.5"/>
		<line fill="#739E40" stroke="#387338" stroke-width="5" stroke-miterlimit="10" x1="442.4" y1="530.5" x2="441.5" y2="607.5"/>
		<circle fill="#F4E9B2" stroke="#C9AD77" stroke-width="5" stroke-miterlimit="10" cx="443" cy="472.6" r="7.9"/>
		<g>
			<g>
				<g>
					<path fill="#414042" stroke="#000000" stroke-width="5" stroke-miterlimit="10" d="M354.3,407.5c-10.7-15.5-3.2-15-3.2-35.2
						c0-53,43.2-96.2,96.2-96.2s96.2,43.2,96.2,96.2c0,15.1,4.7,22.5-1.5,35.2c7.7,4.7,6.5,17.5,12.7,24.6
						c9.9-17.7,15.6-38.1,15.6-59.8c0-67.8-55.2-123-123-123s-123,55.2-123,123c0,29,10.1,55.7,27,76.8
						C357,441.6,348.4,414.5,354.3,407.5z"/>
				</g>
			</g>
			<path fill="#414042" stroke="#000000" stroke-width="5" stroke-miterlimit="10" d="M364.2,377l-12.3,84.1c0,0-57.7,7.6-48.2-57.2
				C310.8,355.2,364.2,377,364.2,377z"/>
			<path fill="#414042" stroke="#000000" stroke-width="5" stroke-miterlimit="10" d="M531.1,373.6l10.7,84.3
				c0,0,57.5,8.7,49.3-56.3C584.9,352.9,531.1,373.6,531.1,373.6z"/>
		</g>
		<g>
			<path fill="none" stroke="#000000" stroke-width="5" stroke-miterlimit="10" d="M423.5,402.7c0,0,1,25.5-3,34.4s-38.5,7.8-49,5.5
				s-27-8.1-17.2-46.6L423.5,402.7z"/>
			<path fill="none" stroke="#000000" stroke-width="5" stroke-miterlimit="10" d="M467.3,402.7c0,0-1,25.5,3,34.4s38.5,7.8,49,5.5
				c10.5-2.2,27-8.1,17.2-46.6L467.3,402.7z"/>
			<g>
				<path d="M541.3,391.4l-74,10l-0.1,3.4l0.1-4.6c0,0-25.1-7.5-43.8,0l0,2.2l0-1l-74-12c0,0-1.7,4.7,0,7.3c1.6,2.6,72,9.7,74.1,9.9
					l0,0.2c0,0,23.2-8.1,43.6,0.7l0-0.9c0.4,0,72.4-5.2,74.1-7.9C543,396.1,541.3,391.4,541.3,391.4z"/>
				<path opacity="0.3" fill="#FFFFFF" d="M354.3,391.1l65.9,11l-64.9,30.9C355.3,432.9,347.1,428,354.3,391.1z"/>
				<path opacity="0.3" fill="#FFFFFF" d="M467.3,404.4c0,0-2.7,28.5,3,32.7c5.7,4.2,66.2-41.1,66.2-41.1L467.3,404.4z"/>
			</g>
		</g>
	</g>
	<path fill="#F1F2F2" stroke="#BCBEC0" stroke-width="3.5955" stroke-miterlimit="10" d="M497,611.3H387.7c-2.4,0-4.4-2-4.4-4.4
		v-62.4c0-2.4,2-4.4,4.4-4.4H497c2.4,0,4.4,2,4.4,4.4v62.4C501.4,609.3,499.5,611.3,497,611.3z"/>
	<path fill="#414042" stroke="#000000" stroke-width="3.8547" stroke-miterlimit="10" d="M404.9,613.4c0,0,12.7-23.5,37.4,0"/>
	<circle fill="#414042" stroke="#000000" stroke-width="3.8547" stroke-miterlimit="10" cx="399.9" cy="722.2" r="6.2"/>
	<circle fill="#414042" stroke="#000000" stroke-width="3.8547" stroke-miterlimit="10" cx="495.4" cy="722.2" r="6.2"/>
	<line fill="none" stroke="#000000" stroke-width="3.8547" stroke-miterlimit="10" x1="395.7" y1="713.3" x2="497.2" y2="713.3"/>
	<line fill="none" stroke="#000000" stroke-width="3.8547" stroke-miterlimit="10" x1="446.4" y1="713.3" x2="446.4" y2="725.3"/>
	<circle fill="#414042" stroke="#000000" stroke-width="3.8547" stroke-miterlimit="10" cx="446.4" cy="728.5" r="6.2"/>
	<path fill="#BCBEC0" d="M440.7,579.2c0,0-11.4-6.8-7.2-10.8c4.2-4,7.2,1.8,7.2,1.8s4-5.1,7.2-1.8
		C451.6,572.3,440.7,579.2,440.7,579.2z"/>
	<g opacity="0.8">
		<g>
			<path fill="#414042" d="M533.8,127.2c-4.3-6.2-6.9-13.8-6.9-22c0-21.3,17.4-38.7,38.7-38.7c21.3,0,38.7,17.4,38.7,38.7
				c0,6.1-1.4,11.8-3.9,17c3.1,1.9,5.9,4.2,8.4,7.1c4-7.1,6.3-15.3,6.3-24.1c0-27.3-22.2-49.5-49.5-49.5
				c-27.3,0-49.5,22.2-49.5,49.5c0,11.7,4.1,22.4,10.9,30.9C529.3,133.1,531.4,130,533.8,127.2z"/>
		</g>
		<path fill="#414042" d="M541.7,115.8V150c0,0-22.5,6.4-22.5-20C519.2,110.2,541.7,115.8,541.7,115.8z"/>
		<path fill="#414042" d="M587.1,115.8V150c0,0,22.5,6.4,22.5-20C609.6,110.2,587.1,115.8,587.1,115.8z"/>
	</g>
	<g opacity="0.8">
		<g>
			<path fill="#414042" d="M381.5,146.7H259.4V67.7h122.1V146.7z M268.2,138h104.6V76.4H268.2V138z"/>
		</g>
		<g>
			<polygon fill="#414042" points="276,129.7 296.4,98.5 315.5,120.5 339,107.2 366.6,129.7 			"/>
		</g>
		<g>
			<circle fill="#414042" cx="350.1" cy="94.2" r="9.7"/>
		</g>
	</g>
	<rect x="240.3" y="173.1" fill="none" width="162" height="24.9"/>
	<text transform="matrix(1 0 0 1 289.9527 191.3491)" fill="#696969" font-family="'OpenSans-Light'" font-size="24">Visual</text>
	<rect x="484.7" y="173.1" fill="none" width="162" height="24.9"/>
	<text transform="matrix(1 0 0 1 520.3066 191.3491)" fill="#696969" font-family="'OpenSans-Light'" font-size="24">Auditory</text>
	<g>
		<rect x="448.7" y="81" fill="#666766" width="9" height="45"/>
		<rect x="430.7" y="99" fill="#666766" width="45" height="9"/>
	</g>
</g>
</svg>
