<?xml version="1.0" encoding="utf-8"?>
<!-- Generator: Adobe Illustrator 18.1.0, SVG Export Plug-In . SVG Version: 6.00 Build 0)  -->
<!DOCTYPE svg PUBLIC "-//W3C//DTD SVG 1.1//EN" "http://www.w3.org/Graphics/SVG/1.1/DTD/svg11.dtd">
<svg version="1.1" id="Layer_1" xmlns="http://www.w3.org/2000/svg" xmlns:xlink="http://www.w3.org/1999/xlink" x="0px" y="0px"
	 viewBox="0 0 90.5 90.5" enable-background="new 0 0 90.5 90.5" xml:space="preserve">
<g id="BmokcZ.tif">
	<g>
		<path fill="#13ADBC" d="M90.5,49.8c-0.2,0.7-0.3,1.5-0.6,2.2c-0.3,0.8-0.8,1.1-1.6,0.6c-0.8-0.4-1.5-0.9-2.1-1.5
			C82.4,47.4,78.7,43.7,75,40c-0.2-0.2-0.4-0.5-0.6-0.8c-0.1,0-0.3-0.1-0.4-0.1c-0.2,0.3-0.3,0.7-0.6,0.9c-6,6-12,12-18,18.1
			c-1.9,1.9-4.2,3.2-7,3.3c-2.8,0.1-5.3-0.6-7.3-2.5c-3.2-3-6.2-6.1-9.2-9.2c-3.5-3.7-3.6-9.9,0-13.6c6.2-6.3,12.5-12.6,18.8-18.8
			c0.2-0.2,0.5-0.4,0.8-0.7c-0.3-0.4-0.5-0.6-0.8-0.8C47,11.9,43.2,8.2,39.5,4.4c-0.6-0.6-1.1-1.3-1.5-2.1c-0.5-0.8-0.2-1.4,0.7-1.8
			c0.6-0.2,1.3-0.4,2-0.6C55,0,69.4,0,83.7,0c0.5,0.1,1,0.2,1.6,0.2c3,0.1,4.3,1.2,4.9,4.2c0.1,0.8,0.2,1.6,0.3,2.3
			C90.5,21.1,90.5,35.5,90.5,49.8z"/>
		<path fill="#13ADBC" d="M0,32.7c0.2-1,0.4-2,0.7-2.9C2.8,23,7.3,18.9,14.3,17.7c1-0.2,2.1-0.3,3.2-0.3c7,0,14,0,20.9,0
			c0.2,0,0.5,0,0.8,0c-0.2,0.3-0.3,0.4-0.5,0.6c-3.1,3.1-6.2,6.2-9.3,9.3c-0.3,0.3-0.9,0.5-1.3,0.5c-3.6,0-7.1,0.1-10.7,0
			c-4.2-0.1-7,3.1-7,7.1c0.1,5,0,10.1,0,15.1c0,7.7,0,15.4,0,23.1c0,2.8,1.1,5,3.7,6.2c0.9,0.5,2.1,0.7,3.1,0.7
			c12.9,0,25.7,0,38.6,0c3.7,0,6.9-2.7,6.8-7c0-3.5,0-7,0-10.5c0-0.4,0.2-0.9,0.4-1.2c3.2-3.2,6.4-6.4,9.5-9.6
			c0.1-0.1,0.2-0.2,0.4-0.3c0,0.4,0,0.7,0,1c0,6.8,0,13.6,0,20.4c0,7.4-3.3,12.9-10,16.1c-1.4,0.7-3.1,0.9-4.6,1.4
			c-0.2,0.1-0.4,0.1-0.7,0.2c-14.2,0-28.4,0-42.6,0c-0.2-0.1-0.4-0.1-0.6-0.2c-6.4-1.1-11-4.6-13.4-10.7c-0.6-1.4-0.8-2.9-1.2-4.4
			C0,61.1,0,46.9,0,32.7z"/>
	</g>
</g>
</svg>
