<?xml version="1.0" encoding="utf-8"?>
<!-- Generator: Adobe Illustrator 19.2.1, SVG Export Plug-In . SVG Version: 6.00 Build 0)  -->
<svg version="1.1" id="Layer_1" xmlns="http://www.w3.org/2000/svg" xmlns:xlink="http://www.w3.org/1999/xlink" x="0px" y="0px"
	 viewBox="0 0 322.6 400" style="enable-background:new 0 0 322.6 400;" xml:space="preserve">
<style type="text/css">
	.st0{opacity:0.8;}
	.st1{fill:none;stroke:#FFFFFF;stroke-width:0.7567;stroke-miterlimit:10;}
	.st2{fill:#FFFFFF;}
	.st3{opacity:0.2;fill:#533657;}
	.st4{fill:#2E1633;}
	.st5{fill:#533657;}
	.st6{fill:none;stroke:#CC6699;stroke-width:3;stroke-miterlimit:10;}
	.st7{fill:none;stroke:#B8A7D6;stroke-width:3;stroke-miterlimit:10;}
	.st8{fill:none;stroke:#FFFDAB;stroke-width:3;stroke-miterlimit:10;}
	.st9{fill:none;stroke:#14D7F3;stroke-width:3;stroke-miterlimit:10;}
	.st10{fill:none;stroke:#2E1633;stroke-width:8;stroke-linecap:round;stroke-linejoin:round;stroke-miterlimit:10;}
	.st11{opacity:0.28;}
	.st12{fill:none;stroke:#2E1633;stroke-width:8;stroke-linejoin:round;stroke-miterlimit:10;}
	.st13{fill:none;stroke:#2E1633;stroke-width:3;stroke-miterlimit:10;}
	.st14{fill:#FFFAB6;}
	.st15{opacity:0.23;fill:#2E1633;}
	.st16{fill:none;stroke:#BBE2DC;stroke-width:3;stroke-miterlimit:10;}
	.st17{fill:#B3ABD3;}
	.st18{fill:none;stroke:#2E1633;stroke-width:7;stroke-linecap:round;stroke-linejoin:round;stroke-miterlimit:10;}
	.st19{opacity:0.28;fill:#533657;}
	.st20{fill:#CC6699;}
	.st21{fill:none;stroke:#2E1633;stroke-width:3;stroke-linecap:round;stroke-linejoin:round;stroke-miterlimit:10;}
	.st22{fill:none;stroke:#2E1633;stroke-width:2.1774;stroke-miterlimit:10;}
</style>
<g class="st0">
	<path class="st1" d="M129.1,339.2"/>
</g>
<g class="st0">
	<path class="st1" d="M150.2,352.2"/>
</g>
<g>
	<path class="st2" d="M313,238.5l-24.1-1.8l-2.2-4l4.5,2.9c-2-1.3-3.8-2.8-5.4-4.5c0,0-7.8-13.7-7.8-13.8
		c-9-46.5-7.8-43.7-10.2-52.5c-0.2-0.6,0.2-4.4,0.7-9.1c39.8-32.2,37.9-76.2,37.9-76.2s-19.8-8.7-50.1,8.3l-10.4,42.5
		c0,0-60.4-28.9-112.8-13.2l0,0c0,0-7.5,2.2-16.7,5.9l1.1,0.7c-0.2,0.1-0.5,0.2-0.7,0.3C95,87.5,70.3,81.1,70.3,81.1
		c-32.3,40.2-48.8,104.3,23.2,156.2c0,0,0,0,0,0l23.9,68.1c93.3,12.7,69.3,24.7,115,19l19.5,5.7l10.3-8c0,0-11.5-13.2-8.7-30
		c1.2-7.2,29,0.7,29,0.7C307.7,281.1,314.7,254.2,313,238.5z"/>
	<path class="st3" d="M136.5,284.8c19.8,22.2,60.7,28.8,60.7,28.8s31.8,9.2-18.5,11.5C158.3,323,148.4,306,136.5,284.8z"/>
	<g>
		<path class="st4" d="M255.5,291.3c0,0,0.1,0.1,0.2,0.3c0.1,0.2,0.3,0.4,0.4,0.6c0.3,0.5,0.6,1.2,0.5,1.8c-0.3,1.2-0.8,2.9-0.9,5.1
			c-0.1,2.2,0.1,4.9,1.2,7.7c1,2.9,2.9,5.9,5.5,8.7l0.6,0.6l0.1,0.1l0.1,0.2l0.3,0.4c0.1,0.2,0.3,0.4,0.4,0.6
			c0.5,0.9,0.8,1.9,0.9,2.9c0.2,2-0.4,3.8-1.2,5.2c-1.6,2.9-4.2,4.8-6.9,6.1c-2.8,1.2-5.9,1.8-9,1.6c-3.1-0.1-6.1-0.9-8.9-2.1
			c-0.6-0.3-1.2-0.5-1.9-0.8c-0.6-0.2-1.1-0.4-1.6-0.6c-1.2-0.4-2.4-0.7-3.6-1c-2.5-0.6-5.1-0.9-7.7-1.1c-5.3-0.4-10.9-0.3-16.6-0.2
			c-5.7,0.1-11.5,0.3-17.3,0c-5.8-0.3-11.6-1-17.1-2.4c-2.7-0.7-5.4-1.6-8-2.7c-2.5-1.1-4.9-2.4-7.2-3.8c-4.5-2.8-8.2-6.2-11.2-9.6
			c-1.5-1.7-2.8-3.4-4-5.1c-0.6-0.8-1.1-1.7-1.6-2.5c-0.5-0.8-1-1.6-1.4-2.4c-1.8-3.2-3-6.1-3.8-8.5c-0.2-0.6-0.4-1.2-0.6-1.7
			c-0.2-0.5-0.3-1.1-0.5-1.5c-0.3-1-0.5-1.8-0.7-2.4c-0.3-1.3-0.4-2.1-0.4-2.1c-0.1-0.7,0.4-1.5,1.1-1.6c0.6-0.1,1.1,0.2,1.4,0.6
			l0,0c0,0,0.4,0.6,1.1,1.8c0.7,1.1,1.6,2.8,2.9,4.9c1.3,2.1,2.8,4.6,4.6,7.4c0.5,0.7,1,1.4,1.5,2.1c0.5,0.7,1,1.4,1.6,2.2
			c1.1,1.5,2.4,3,3.7,4.4c2.8,2.9,6.1,5.7,10,8c3.9,2.3,8.4,4.1,13.3,5.3c4.9,1.2,10.2,1.7,15.6,1.9c5.4,0.2,11.1,0.1,16.8,0
			c5.7-0.1,11.5-0.2,17.4,0.3c2.9,0.3,5.9,0.7,8.8,1.4c1.4,0.3,2.9,0.8,4.3,1.3c0.7,0.2,1.5,0.6,2.1,0.8c0.6,0.3,1.2,0.5,1.8,0.8
			c2.1,0.9,4.3,1.5,6.4,1.6c2.1,0.1,4.1-0.2,5.8-0.9c1.7-0.7,3.1-1.9,3.8-3c0.3-0.6,0.4-1,0.4-1.3c0-0.1,0-0.2-0.1-0.3
			c0,0,0,0,0-0.1c0,0,0,0,0,0c0,0,0,0,0,0l-0.1-0.1l-0.1-0.1l0,0c0,0-0.1-0.1,0,0l-0.1-0.2l-0.3-0.3c-3-3.6-5.1-7.6-6.1-11.4
			c-1-3.8-1-7.3-0.5-10.1c0.5-2.7,1.2-4.8,1.9-6.1c0.4-0.6,1.2-0.9,1.8-1c0.3-0.1,0.6-0.1,0.8-0.1
			C255.4,291.3,255.5,291.3,255.5,291.3z"/>
	</g>
	<path class="st5" d="M43.6,146.8c-24-2.5-59,45.3-22.3,90.9c-6.6,49.9,32.8,90.5,61.5,90.1c18.6,34.4,63.8,49.8,94.8,39.3
		c7.8,21.3,28.5,34.1,56.9,25.9s38.8-3.3,38.8-3.3s-4.1-27.3-32.1-33.9c-24.1-36.4-51-44.4-121.3-48.3
		c-12.1-37.3-30.8-73.3-30.8-73.3S35.7,180.6,43.6,146.8z"/>
	<g>
		<path class="st4" d="M95.2,294.1c0,0,0.6,0.3,1.6,1c1.1,0.6,2.6,1.5,4.6,2.4c2,0.9,4.5,2,7.4,3c2.9,1,6.2,2,9.8,2.8
			c3.7,0.9,7.7,1.7,12,2.4c4.3,0.7,8.9,1.3,13.7,1.7c4.8,0.5,9.8,0.8,14.9,1.2c5.1,0.4,10.3,0.8,15.5,1.4c5.2,0.5,10.5,1.2,15.6,2.1
			c5.2,0.9,10.3,2.1,15.1,3.7c4.9,1.6,9.5,3.6,13.6,6.1c4.1,2.4,7.8,5.3,10.7,8.4c2.9,3.1,5.2,6.3,6.9,9.3c1.7,3,2.9,5.7,3.7,8
			c0.4,1.1,0.7,2.2,1,3.1c0.3,0.9,0.5,1.7,0.6,2.3c0.3,1.3,0.5,1.9,0.5,1.9c0.5,1.9-0.7,3.8-2.6,4.2c-1.8,0.4-3.6-0.6-4.2-2.4
			l-0.1-0.2c0,0-0.2-0.6-0.5-1.7c-0.2-0.6-0.4-1.2-0.7-2c-0.3-0.8-0.6-1.7-1-2.6c-1.6-3.9-4.4-9.3-9.4-14.3
			c-2.5-2.5-5.6-4.8-9.2-6.9c-1.8-1-3.7-2-5.7-2.8c-2-0.8-4.1-1.6-6.3-2.3c-4.4-1.4-9.1-2.6-14-3.5c-2.4-0.5-4.9-0.8-7.4-1.2
			c-2.5-0.4-5-0.7-7.6-1c-5.1-0.6-10.2-1.1-15.3-1.6c-5.1-0.5-10.1-1.1-15-1.7c-4.9-0.6-9.6-1.4-14.1-2.3c-4.5-0.9-8.7-2-12.5-3.4
			c-3.8-1.4-7.2-3-10-4.7c-2.8-1.7-5.1-3.4-6.9-5.1c-1.7-1.6-3-3-3.7-4C95.5,294.7,95.2,294.1,95.2,294.1z"/>
	</g>
	<path class="st5" d="M195.8,112.1c-1.7-31.6,13.9-74,29.2-103.6c-21.3-2.9-51.3,6.2-51.3,6.2s-17.7,31.3-14,74
		c-11-30.5-10-62.7-10-62.7s-38.4,13.9-76.7,57c0,0,32.5,8.4,45.6,42C154.2,111.6,195.8,112.1,195.8,112.1z"/>
	<path class="st6" d="M202.3,8c0,0-28.4,42.2-26.9,104.1"/>
	<path class="st7" d="M129.1,34.4c0,0-1.8,41.8,23.2,80.3"/>
	<path class="st8" d="M91.9,60.7c0,0,12.6,17.3,37.1,60.8"/>
	<path class="st9" d="M17.7,162.1c-17.3,28,0.7,59.1,38,87.3c25.8,19.5,52,24,60.7,50.7"/>
	<path class="st7" d="M39.3,146c-20,22.2-3.6,61.9,33.7,90.2c25.8,19.5,33.1,26.5,38,45.3"/>
	<path class="st8" d="M21.4,252.1c10.2,46.8,66,65.2,113.3,70.6c32.2,3.7,84.9,5.8,91.9,33.1"/>
	<path class="st4" d="M21.6,254.9c6.4,8.3,34.8,7.5,34.8,7.5s-26.1-9.1-35.1-24.7C21.4,252.1,21.6,254.9,21.6,254.9z"/>
	<g>
		<path class="st4" d="M44.4,151.1c0,0-0.6,0.1-1.7,0.3c-0.6,0.1-1.3,0.2-2.1,0.4c-0.7,0.2-1.4,0.4-2.3,0.7
			c-0.8,0.2-1.8,0.7-2.9,1.1c-1.1,0.4-2.2,1-3.4,1.6c-0.3,0.2-0.6,0.3-0.9,0.5c-0.3,0.2-0.6,0.4-0.9,0.6c-0.6,0.4-1.2,0.8-1.8,1.2
			c-0.6,0.4-1.2,0.9-1.8,1.4c-0.6,0.5-1.3,1-1.8,1.6c-0.6,0.6-1.2,1.2-1.8,1.8c-0.6,0.7-1.2,1.3-1.8,2c-0.6,0.7-1.2,1.4-1.7,2.2
			c-0.5,0.8-1.2,1.5-1.6,2.3c-0.5,0.8-1,1.7-1.6,2.5c-0.5,0.9-0.9,1.8-1.4,2.7c-0.5,0.9-0.8,1.9-1.3,2.8c-0.2,0.5-0.4,1-0.6,1.4
			c-0.2,0.5-0.3,1-0.5,1.5c-0.2,0.5-0.3,1-0.5,1.5c-0.2,0.5-0.3,1-0.5,1.5c-0.3,1-0.5,2.1-0.8,3.2c-0.2,1.1-0.4,2.2-0.5,3.3
			c-0.1,0.5-0.2,1.1-0.2,1.7l-0.1,1.7c-0.3,4.4-0.1,9,0.8,13.5l0.1,0.8l0.2,0.8l0.4,1.6l0.4,1.6c0.1,0.5,0.3,1.1,0.5,1.6
			c0.4,1.1,0.7,2.2,1,3.2c0.4,1,0.8,2.1,1.2,3.1c1.8,4.1,3.7,8.1,6.2,11.7c0.6,0.9,1.2,1.8,1.8,2.7c0.7,0.8,1.3,1.7,1.9,2.5
			c1.2,1.7,2.7,3.2,4,4.7c0.3,0.4,0.7,0.8,1,1.1c0.4,0.3,0.7,0.7,1.1,1c0.7,0.7,1.4,1.4,2.1,2.1c1.3,1.4,2.8,2.5,4.1,3.7
			c0.7,0.6,1.3,1.2,2,1.7c0.7,0.5,1.3,1,2,1.5c1.3,1,2.5,2,3.7,2.8c2.4,1.7,4.5,3.2,6.3,4.3c1.8,1.1,3.2,2,4.2,2.6
			c1,0.6,1.5,0.9,1.5,0.9s-0.6-0.2-1.7-0.6c-1.1-0.4-2.7-0.9-4.7-1.7c-1-0.3-2.1-0.9-3.3-1.4c-1.2-0.5-2.5-1.1-3.9-1.7
			c-1.4-0.7-2.8-1.5-4.3-2.3c-0.7-0.4-1.5-0.8-2.3-1.3c-0.8-0.5-1.5-1-2.3-1.5c-3.2-2-6.5-4.4-9.8-7.2c-1.6-1.5-3.4-2.9-4.9-4.6
			c-0.8-0.8-1.6-1.7-2.4-2.6c-0.8-0.9-1.5-1.8-2.3-2.8c-1.6-1.8-2.9-3.9-4.3-6L9.9,228l-0.5-0.8l-0.9-1.7c-0.6-1.1-1.3-2.2-1.7-3.4
			c-0.5-1.2-1-2.4-1.5-3.6c-0.4-1.2-0.8-2.5-1.2-3.7c-0.2-0.6-0.4-1.2-0.6-1.9L3,211.1l-0.4-1.9l-0.2-1l-0.1-1l-0.5-3.9
			c-0.1-1.3-0.1-2.6-0.2-3.9c-0.1-1.3,0-2.6,0-3.9l0-1.9l0.2-1.9l0.2-1.9c0.1-0.6,0.1-1.3,0.3-1.9c0.2-1.3,0.4-2.5,0.7-3.7
			c0.3-1.2,0.6-2.4,0.9-3.6c0.1-0.6,0.3-1.2,0.5-1.8c0.2-0.6,0.4-1.2,0.6-1.8c0.2-0.6,0.4-1.2,0.6-1.7c0.2-0.6,0.5-1.1,0.7-1.7
			c0.5-1.1,0.9-2.2,1.5-3.3c0.5-1.1,1.1-2.1,1.6-3.1c0.6-1,1.2-2,1.8-2.9c0.6-1,1.3-1.8,1.9-2.7c0.7-0.9,1.3-1.8,2-2.5
			c0.7-0.8,1.4-1.6,2.1-2.4c0.7-0.7,1.5-1.4,2.2-2.1c0.7-0.7,1.5-1.3,2.2-1.9c0.8-0.6,1.5-1.2,2.2-1.7c0.8-0.5,1.5-1,2.2-1.5
			c0.4-0.2,0.7-0.5,1.1-0.7c0.4-0.2,0.7-0.4,1.1-0.6c1.5-0.8,2.8-1.5,4.1-2c1.3-0.5,2.5-1.1,3.7-1.4c1.2-0.3,2.3-0.6,3.2-0.9
			c0.8-0.1,1.5-0.3,2.1-0.4c1.1-0.2,1.7-0.3,1.7-0.3c2.2-0.4,4.2,1.1,4.6,3.3C48,148.6,46.5,150.7,44.4,151.1z"/>
	</g>
	<g>
		<path class="st4" d="M25.8,239.2c0,0-0.1,0.7-0.2,1.9c0,0.6-0.1,1.3-0.2,2.2c0,0.9-0.1,1.9-0.1,3c-0.1,2.3,0,5,0.2,8.2
			c0.2,3.2,0.7,6.7,1.5,10.5c0.8,3.8,2,7.9,3.5,12c0.4,1,0.8,2.1,1.3,3.1c0.5,1,1,2.1,1.4,3.1c1.1,2.1,2.2,4.2,3.5,6.2
			c2.6,4.1,5.6,8.1,9.2,11.7c0.4,0.5,0.9,0.9,1.3,1.4l1.4,1.3c1,0.8,1.9,1.7,2.9,2.5c2,1.6,4.1,3.2,6.3,4.6l1.6,1.1l0.8,0.5l0.8,0.5
			c1.1,0.7,2.2,1.3,3.4,2c1.1,0.7,2.3,1.2,3.4,1.8c1.2,0.6,2.3,1.2,3.4,1.8c1.2,0.5,2.4,1,3.5,1.5c1.2,0.5,2.3,1.1,3.5,1.5
			c1.2,0.4,2.4,0.9,3.5,1.3c1.2,0.4,2.3,1,3.5,1.3c2.4,0.8,4.7,1.5,7,2.3c2.3,0.6,4.6,1.3,6.8,1.9c2.2,0.6,4.4,1.1,6.5,1.6
			c1.1,0.3,2.1,0.5,3.1,0.8c1,0.2,2,0.4,3,0.6c2,0.4,3.9,0.8,5.7,1.2c1.8,0.3,3.5,0.6,5.2,0.9c1.6,0.3,3.2,0.6,4.6,0.9
			c1.4,0.3,2.7,0.4,3.9,0.6c2.4,0.4,4.2,0.7,5.5,1c1.3,0.2,1.9,0.4,1.9,0.4s-0.7,0.1-2,0.2c-1.3,0.1-3.2,0.3-5.6,0.5
			c-1.2,0.1-2.5,0.2-4,0.2c-1.5,0-3,0-4.7,0c-1.7,0-3.5,0-5.4,0c-1.9-0.1-3.9-0.2-5.9-0.3c-1-0.1-2.1-0.1-3.2-0.2
			c-1.1-0.1-2.2-0.3-3.3-0.4c-2.2-0.3-4.5-0.5-6.9-0.9c-2.4-0.4-4.8-0.9-7.2-1.4c-2.5-0.5-4.9-1.3-7.5-1.9c-2.5-0.7-5.1-1.6-7.6-2.5
			c-2.6-0.9-5.1-2.1-7.6-3.2c-5-2.5-10-5.2-14.6-8.6c-2.4-1.6-4.6-3.4-6.8-5.3c-1.1-0.9-2.1-1.9-3.1-2.9l-1.5-1.5
			c-0.5-0.5-1-1-1.5-1.5c-3.9-4-7.3-8.5-10.2-13c-1.5-2.3-2.7-4.6-3.9-6.9c-0.5-1.2-1.1-2.3-1.6-3.5c-0.5-1.1-0.9-2.3-1.4-3.5
			c-1.7-4.6-3.1-9.1-3.9-13.3c-0.8-4.2-1.4-8.1-1.6-11.5c-0.2-3.5-0.3-6.5-0.3-9c0-1.2,0.1-2.4,0.1-3.3c0.1-1,0.1-1.8,0.2-2.5
			c0.1-1.3,0.2-2,0.2-2c0.2-2.2,2.2-3.8,4.4-3.6C24.4,235.1,26,237,25.8,239.2z"/>
	</g>
	<path class="st3" d="M113.3,250.5c0,0,9.8,33.9,19.1,59.9c-6.7-1.5-5-2.5-12.2-4.1c-6.2-22.1-24.2-66.9-24.2-66.9
		S98.7,241.9,113.3,250.5z"/>
	<g>
		<path class="st4" d="M114.2,250.5c0,0-1.1-0.3-3.2-1c-2.1-0.7-5.1-1.8-8.8-3.5c-3.7-1.7-8-4.1-12.7-7.3c-2.4-1.6-4.8-3.4-7.3-5.4
			c-2.4-2.1-5-4.3-7.5-6.7c-5-4.9-10.2-10.6-14.8-17.4c-2.3-3.4-4.5-7-6.5-10.8c-2-3.8-3.7-7.9-5.2-12.1c-3-8.4-4.8-17.6-5.2-27
			c-0.5-9.4,0.3-18.9,2.2-28.1c1.9-9.2,4.7-18.2,8.3-26.7c0.9-2.1,1.8-4.2,2.8-6.3l0.4-0.8l0.4-0.8c0.3-0.6,0.6-1.1,0.9-1.6
			c0.6-1.1,1.2-2.1,1.9-3.1c1.4-2,3-4,5-5.7c2-1.7,4.4-3.2,7.3-3.9c2.8-0.7,5.9-0.5,8.4,0.3c1.3,0.4,2.5,0.9,3.6,1.5
			c1.1,0.6,2.2,1.3,2.9,1.8c3.6,2.4,6.9,5,10,7.7c6.2,5.4,11.3,11.3,15.2,17.3c4,5.9,6.8,11.9,8.9,17.2c2.1,5.3,3.3,10.2,3.9,14.3
			c0.6,4.1,0.7,7.3,0.7,9.5c-0.1,2.2-0.2,3.4-0.2,3.4s-0.7-1-1.6-3c-0.5-1-1.1-2.2-1.8-3.6c-0.7-1.4-1.5-3-2.3-4.8
			c-1.7-3.5-3.7-7.8-6-12.6c-2.4-4.8-5.3-10.1-8.9-15.4c-3.7-5.4-8.1-10.9-13.5-16c-2.7-2.6-5.7-5-8.9-7.2c-0.9-0.6-1.6-1.1-2.3-1.5
			c-0.7-0.4-1.4-0.7-2.1-1c-1.4-0.5-2.8-0.5-4.1-0.2c-2.6,0.6-5.3,3.2-7.5,6.4c-0.5,0.8-1,1.6-1.5,2.5c-0.2,0.4-0.5,0.9-0.7,1.3
			L64,101l-0.3,0.7c-0.9,2-1.8,4-2.6,6c-3.3,8.1-5.9,16.5-7.5,25.2c-1.6,8.6-2.2,17.4-1.6,25.9c0.5,8.5,2.3,16.8,4.9,24.5
			c1.3,3.8,2.9,7.5,4.7,11c1.7,3.5,3.7,6.8,5.7,9.9c4.1,6.2,8.7,11.7,13.3,16.5c4.6,4.7,9.2,8.7,13.3,12.3c4.1,3.6,7.8,6.6,10.8,9.2
			c3,2.5,5.4,4.6,7,6.1C113.3,249.6,114.2,250.5,114.2,250.5z"/>
	</g>
	<path class="st3" d="M105.2,168.3c-8,14.2-9.3,32.2-9.3,32.2c-52.3-47.1-25.6-89.1-23.3-94.8C61.1,129.6,86.9,181.2,105.2,168.3z"
		/>
	<g>
		<path class="st4" d="M74.7,99.7c-1,2.1-1.8,4.3-2.6,6.5c-0.8,2.2-1.4,4.4-2,6.6c-1.1,4.5-1.9,9-2.3,13.5
			c-0.4,4.5-0.5,9.1-0.1,13.6c0.3,4.5,1.1,8.9,2.2,13.2c0.6,2.2,1.2,4.3,2,6.4c0.7,2.1,1.6,4.1,2.5,6.2c0.9,2,2,4,3,5.9
			c1.1,1.9,2.2,3.9,3.4,5.7c0.6,1,1.2,1.9,1.8,2.8l1.9,2.8c1.3,1.9,2.6,3.7,4,5.4c1.4,1.8,2.9,3.5,4.4,5.2c0.8,0.9,1.5,1.7,2.3,2.5
			l2.4,2.5l-4.1,1.9c0-1,0.1-1.8,0.1-2.7c0.1-0.9,0.2-1.7,0.3-2.6c0.2-1.7,0.5-3.4,0.8-5c0.3-1.7,0.7-3.3,1.2-5
			c0.5-1.6,1-3.2,1.7-4.8c0.6-1.6,1.3-3.1,2.1-4.6c0.8-1.5,1.6-3,2.6-4.4c0.5-0.7,1-1.4,1.5-2.1c0.5-0.7,1-1.3,1.6-1.9
			c0.5-0.6,1.1-1.3,1.7-1.8c0.6-0.6,1.2-1.1,1.8-1.7c-0.5,0.7-1.1,1.3-1.5,2c-0.5,0.7-1,1.3-1.4,2c-0.4,0.7-0.9,1.4-1.3,2.1
			c-0.4,0.7-0.8,1.4-1.1,2.2c-0.4,0.7-0.7,1.5-1,2.2c-0.3,0.8-0.6,1.5-0.9,2.3c-0.6,1.5-1,3.1-1.4,4.6c-0.8,3.1-1.3,6.3-1.6,9.5
			c-0.2,1.6-0.3,3.2-0.3,4.8c0,0.8,0,1.6,0,2.4c0,0.8,0,1.6,0.1,2.3c0.1,1.3-0.9,2.5-2.2,2.6c-0.7,0.1-1.3-0.1-1.7-0.5l-0.2-0.1
			l-2.8-2.3c-0.9-0.8-1.8-1.6-2.7-2.4c-1.8-1.6-3.5-3.3-5.2-5c-0.8-0.9-1.7-1.7-2.5-2.6c-0.8-0.9-1.6-1.8-2.4-2.7
			c-1.6-1.9-3-3.8-4.4-5.8c-1.4-2-2.6-4.1-3.7-6.3c-1.1-2.2-2.1-4.4-3-6.7c-0.9-2.3-1.7-4.6-2.4-6.9c-0.7-2.3-1.3-4.7-1.7-7.1
			c-0.9-4.8-1.3-9.6-1.2-14.5c0.1-4.8,0.6-9.6,1.6-14.3c0.5-2.3,1.1-4.7,1.8-6.9c0.7-2.3,1.5-4.5,2.4-6.7c0.9-2.2,1.9-4.3,2.9-6.4
			C72.1,103.6,73.3,101.6,74.7,99.7z"/>
	</g>
	<path class="st10" d="M258.5,90c11.9-6.7,22.2-9.4,30.4-10.2c11.2-1.1,20.2,8.8,17.8,19.8c-3.5,16.4-12.9,41-38.8,60.6"/>
	<g class="st11">
		<path class="st5" d="M270,234.3c5.5-12.2,9.5-3.8,9.5-3.8l1-15.2c0,0-9.7,1.4-11.3,8.7C267.7,231.3,270,234.3,270,234.3z"/>
		<path class="st5" d="M273.1,173.7c-11.2-6.3-23.8-2.6-23.8-2.6c8.3,3.4,10.6,7,12.7,13.8L273.1,173.7z"/>
		<path class="st5" d="M241.2,146.9c21.2,4.1,25,89.8,47.7,89.8c-6.9-17.2-12.9-68.7-24.7-84.3c-11.8-15.6-19.4-19.8-19.4-19.8
			L241.2,146.9z"/>
	</g>
	<path class="st3" d="M125.4,147.7c-1.4-24.1,74.8-41.5,91.3-27.7c3.5-1.4-21.7-9.5-21.7-9.5s-63.3-0.5-75.9,14.2
		C119.7,128.9,125.4,147.7,125.4,147.7z"/>
	<path class="st10" d="M119.7,125.8c67-29.3,112.3-11.3,137,15.3c26.2,28.3,10.7,79.9,36.8,96.6"/>
	<path class="st3" d="M286.3,93.7c0,0-27,32.4-11.4,58.5C266.5,164.9,249,134,249,134S256.3,103,286.3,93.7z"/>
	<g>
		<path class="st4" d="M244.5,130.8c0,0,0.1-0.2,0.3-0.7c0.2-0.5,0.5-1.2,0.9-2.1c0.4-0.8,0.9-1.9,1.6-3c0.6-1.1,1.4-2.4,2.3-3.7
			c0.9-1.3,1.9-2.7,3-4.1c0.6-0.7,1.2-1.4,1.8-2.1c0.6-0.7,1.2-1.5,2-2.2c1.4-1.4,2.8-2.9,4.4-4.3c0.8-0.7,1.5-1.4,2.3-2.1
			c0.8-0.7,1.6-1.3,2.5-2c1.6-1.3,3.3-2.5,5-3.7c1.7-1.2,3.5-2.2,5.1-3.2c1.6-1.1,3.4-1.8,5-2.6c0.8-0.4,1.6-0.8,2.3-1.1
			c0.8-0.3,1.5-0.6,2.3-0.9c1.5-0.5,2.7-1.1,3.9-1.5c1.2-0.4,2.2-0.7,3.1-0.9c1.7-0.5,2.7-0.8,2.7-0.8s-0.9,0.5-2.4,1.4
			c-0.8,0.4-1.7,0.9-2.8,1.5c-1.1,0.6-2.2,1.4-3.5,2.2c-0.6,0.4-1.3,0.8-2,1.3c-0.7,0.4-1.3,1-2,1.5c-1.4,1.1-2.8,2.1-4.2,3.3
			c-1.4,1.2-2.9,2.4-4.3,3.8c-1.4,1.3-2.8,2.7-4.1,4.1c-0.7,0.7-1.3,1.4-2,2.2c-0.6,0.7-1.2,1.5-1.9,2.2c-1.3,1.4-2.4,3-3.5,4.4
			c-1,1.5-2.1,2.9-3,4.3c-0.9,1.4-1.8,2.7-2.6,3.9c-0.8,1.2-1.5,2.3-2.1,3.3c-0.6,1-1.2,1.8-1.6,2.6c-0.4,0.7-0.8,1.2-1,1.6
			c-0.2,0.3-0.4,0.6-0.4,0.6c-0.9,2-3.3,2.9-5.3,2C244.4,135.2,243.5,132.8,244.5,130.8z"/>
	</g>
	<g>
		<path class="st4" d="M64.5,85.7l4-5.2l4.2-5.3c1.4-1.7,2.8-3.4,4.3-5.1c1.5-1.7,2.9-3.4,4.5-5c1.5-1.6,3-3.3,4.6-4.8l2.4-2.4
			l2.4-2.3c1.6-1.6,3.3-3,4.9-4.5c1.7-1.4,3.4-2.9,5.1-4.3c1.7-1.4,3.5-2.8,5.3-4.1c1.8-1.3,3.6-2.7,5.5-3.9
			c1.9-1.3,3.8-2.5,5.7-3.7c1.9-1.2,3.9-2.3,5.9-3.4c2-1.1,4-2.1,6.1-3c2.1-1,4.2-1.8,6.3-2.7c2.1-0.8,4.3-1.6,6.5-2.2
			c1.1-0.3,2.2-0.6,3.4-0.9c0.6-0.1,1.2-0.3,1.7-0.4l0.9-0.2c0.3-0.1,0.6-0.1,1-0.2c2.2-0.3,4.1,1.3,4.4,3.5c0,0.2,0,0.4,0,0.5
			l0,0.1l0,0c0.1,1.2,0.2,2.5,0.2,3.8l0.2,3.9l0.3,7.8l0.3,7.8c0.1,1.3,0.2,2.6,0.2,3.9c0.1,1.3,0.2,2.6,0.3,3.9
			c0.1,1.3,0.2,2.6,0.3,3.9l0.4,3.9c0.1,1.3,0.3,2.6,0.5,3.9c0.2,1.3,0.3,2.6,0.5,3.9l0.6,3.9l0.7,3.9l0.3,2l0.4,1.9
			c0.3,1.3,0.5,2.6,0.8,3.9l-0.2,0.1l0,0c-0.3-1.6-0.7-3.1-1-4.7c-0.3-1.6-0.5-3.2-0.7-4.8c-0.2-1.6-0.4-3.2-0.5-4.8
			c-0.2-1.6-0.2-3.2-0.3-4.9c0-1.6-0.1-3.2-0.1-4.9c0-1.6,0.1-3.2,0.1-4.9c0.1-1.6,0.2-3.2,0.3-4.9c0.2-1.6,0.3-3.2,0.6-4.9
			c0.2-1.6,0.5-3.2,0.7-4.8c0.3-1.6,0.6-3.2,0.9-4.8c0.3-1.6,0.7-3.2,1.1-4.8c0.4-1.6,0.9-3.2,1.4-4.7c0.5-1.6,1-3.1,1.6-4.7
			c0.5-1.5,1.2-3.1,1.8-4.6c0.6-1.5,1.4-3,2.1-4.5c0.4-0.7,0.8-1.5,1.2-2.2c0.4-0.7,0.8-1.4,1.3-2.2l0.2-0.4
			c0.5-0.8,1.3-1.3,2.1-1.5l0,0c1.1-0.3,2.2-0.6,3.3-0.9l3.2-0.8c2.1-0.5,4.3-1,6.5-1.5c4.3-0.9,8.7-1.7,13.1-2.4
			c4.4-0.6,8.8-1.1,13.3-1.3c1.1,0,2.3-0.1,3.4-0.1c1.1,0,2.3,0,3.4,0c1.1,0.1,2.3,0.1,3.4,0.2c1.1,0.1,2.3,0.2,3.5,0.4
			c2.2,0.3,3.7,2.2,3.5,4.4c-0.1,0.5-0.2,0.9-0.4,1.3l0,0.1c-4.1,7.9-7.9,16.1-11.3,24.3c-3.4,8.3-6.5,16.7-9.2,25.2
			c-1.3,4.3-2.5,8.5-3.6,12.9c-0.5,2.2-1,4.3-1.5,6.5c-0.2,1.1-0.5,2.2-0.7,3.3c-0.2,1.1-0.4,2.2-0.6,3.3c-0.2,1.1-0.4,2.2-0.5,3.3
			c-0.2,1.1-0.3,2.2-0.5,3.3c-0.2,1.1-0.3,2.2-0.4,3.3c-0.1,1.1-0.2,2.2-0.3,3.3c-0.2,2.2-0.3,4.4-0.3,6.5c-0.1,2.2,0,4.3,0.1,6.5
			l0,0.1c0.1,2.2-1.6,4.1-3.8,4.2c-2.2,0.1-4.1-1.6-4.2-3.8c-0.1-2.4-0.2-4.7-0.1-7.1c0.1-2.4,0.2-4.7,0.4-7
			c0.1-1.2,0.2-2.3,0.3-3.5c0.1-1.2,0.3-2.3,0.4-3.5c0.1-1.2,0.3-2.3,0.5-3.5c0.2-1.1,0.4-2.3,0.6-3.4c0.2-1.1,0.4-2.3,0.6-3.4
			c0.2-1.1,0.4-2.3,0.7-3.4c0.5-2.3,1-4.5,1.6-6.7c1.1-4.5,2.4-8.9,3.7-13.3c2.7-8.8,5.9-17.4,9.4-25.9c3.5-8.5,7.4-16.8,11.6-24.9
			l3,5.8c-1-0.1-2-0.2-3-0.3c-1-0.1-2-0.1-3.1-0.2c-1,0-2.1,0-3.1,0c-1,0-2.1,0-3.1,0.1c-4.2,0.2-8.4,0.6-12.5,1.2
			c-4.2,0.6-8.4,1.4-12.5,2.3c-2.1,0.4-4.1,0.9-6.2,1.4l-3.1,0.8c-1,0.3-2.1,0.6-3,0.8l0,0l2.3-1.9l-0.8,2c-0.3,0.7-0.6,1.4-0.9,2.1
			c-0.6,1.4-1.1,2.8-1.7,4.3c-0.6,1.4-1.1,2.9-1.6,4.3c-0.5,1.4-1,2.9-1.5,4.3c-0.5,1.4-1,2.9-1.5,4.4l-1.4,4.4
			c-0.4,1.5-0.9,3-1.3,4.5c-0.4,1.5-0.8,3-1.2,4.5c-0.4,1.5-0.7,3-1.1,4.5c-0.3,1.5-0.7,3-1,4.6l-0.4,2.3l-0.4,2.3
			c-0.3,1.5-0.5,3.1-0.7,4.6c-0.2,1.6-0.4,3.1-0.6,4.7c-0.2,1.6-0.4,3.1-0.5,4.7c-0.2,1.6-0.3,3.2-0.4,4.7l-0.3,4.8l0,0
			c0,0.1,0,0.1-0.1,0.1c-0.1,0-0.1,0-0.1-0.1l0,0c-0.6-1.2-1.2-2.4-1.7-3.6l-0.8-1.8l-0.8-1.9l-1.5-3.7l-1.4-3.8l-0.7-1.9l-0.6-1.9
			c-0.4-1.3-0.8-2.6-1.2-3.9l-1-3.9c-0.4-1.3-0.6-2.6-1-3.9c-0.3-1.3-0.6-2.6-0.9-4c-0.3-1.3-0.5-2.7-0.8-4l-0.7-4l-0.5-4
			c-0.2-1.3-0.3-2.7-0.4-4.1c-0.1-1.4-0.2-2.7-0.2-4.1c0-1.4-0.1-2.7,0-4.1c0-1.4,0.1-2.7,0.3-4.2v0l4.4,4.1l-0.6,0.1l-0.7,0.1
			c-0.5,0.1-1,0.2-1.5,0.3c-1,0.2-2,0.5-3,0.8c-2,0.6-3.9,1.3-5.9,2c-1.9,0.8-3.9,1.6-5.8,2.5c-1.9,0.9-3.8,1.8-5.7,2.8
			c-1.9,1-3.7,2.1-5.5,3.2c-1.8,1.1-3.6,2.2-5.4,3.4c-1.8,1.2-3.5,2.4-5.2,3.7c-1.7,1.3-3.4,2.6-5,3.9c-1.7,1.3-3.3,2.7-4.9,4.1
			c-1.6,1.4-3.2,2.8-4.7,4.3L94,63.7l-2.3,2.3c-1.5,1.5-3,3.1-4.4,4.7c-1.5,1.6-2.9,3.2-4.3,4.8c-1.4,1.6-2.8,3.3-4.2,4.9l-4,5
			l-4,5.2c-1.3,1.8-3.8,2.1-5.6,0.8C63.5,90,63.1,87.5,64.5,85.7z"/>
	</g>
	<line class="st12" x1="225" y1="8.6" x2="244.7" y2="33.8"/>
	<path class="st12" d="M149.7,26.1c0,0,8.5,13.9,12.6,19.2"/>
	<path class="st13" d="M273.9,288.7"/>
	<g>
		<path class="st4" d="M95.2,294.1c0,0,0.6,0.3,1.6,1c1.1,0.6,2.6,1.5,4.6,2.4c2,0.9,4.5,2,7.4,3c2.9,1,6.2,2,9.8,2.8
			c3.7,0.9,7.7,1.7,12,2.4c4.3,0.7,8.9,1.3,13.7,1.7c4.8,0.5,9.8,0.8,14.9,1.2c5.1,0.4,10.3,0.8,15.5,1.4c5.2,0.5,10.5,1.2,15.6,2.1
			c5.2,0.9,10.3,2.1,15.1,3.7c4.9,1.6,9.5,3.6,13.6,6.1c4.1,2.4,7.8,5.3,10.7,8.4c2.9,3.1,5.2,6.3,6.9,9.3c1.7,3,2.9,5.7,3.7,8
			c0.4,1.1,0.7,2.2,1,3.1c0.3,0.9,0.5,1.7,0.6,2.3c0.3,1.3,0.5,1.9,0.5,1.9c0.5,1.9-0.7,3.8-2.6,4.2c-1.8,0.4-3.6-0.6-4.2-2.4
			l-0.1-0.2c0,0-0.2-0.6-0.5-1.7c-0.2-0.6-0.4-1.2-0.7-2c-0.3-0.8-0.6-1.7-1-2.6c-1.6-3.9-4.4-9.3-9.4-14.3
			c-2.5-2.5-5.6-4.8-9.2-6.9c-1.8-1-3.7-2-5.7-2.8c-2-0.8-4.1-1.6-6.3-2.3c-4.4-1.4-9.1-2.6-14-3.5c-2.4-0.5-4.9-0.8-7.4-1.2
			c-2.5-0.4-5-0.7-7.6-1c-5.1-0.6-10.2-1.1-15.3-1.6c-5.1-0.5-10.1-1.1-15-1.7c-4.9-0.6-9.6-1.4-14.1-2.3c-4.5-0.9-8.7-2-12.5-3.4
			c-3.8-1.4-7.2-3-10-4.7c-2.8-1.7-5.1-3.4-6.9-5.1c-1.7-1.6-3-3-3.7-4C95.5,294.7,95.2,294.1,95.2,294.1z"/>
	</g>
	<path class="st3" d="M152.7,212.4c0,0-1.2-59.2,49.5-53.7C183.3,165.2,162,185,152.7,212.4z"/>
	<g>
		<path class="st5" d="M151.8,212.1c0,0-0.1-0.3-0.3-1c-0.2-0.6-0.4-1.6-0.6-2.8c-0.2-1.2-0.4-2.7-0.5-4.4c-0.1-1.7-0.1-3.6,0-5.6
			c0.1-2.1,0.3-4.3,0.7-6.6c0.2-1.2,0.5-2.3,0.7-3.6c0.3-1.2,0.7-2.4,1-3.7c0.4-1.3,0.8-2.5,1.4-3.7c0.3-0.6,0.5-1.3,0.8-1.9
			c0.3-0.6,0.6-1.2,0.9-1.9c0.6-1.3,1.3-2.5,2-3.7c0.8-1.2,1.5-2.4,2.4-3.6c1.8-2.3,3.6-4.6,5.9-6.6c2.1-2.1,4.6-3.8,7.1-5.3
			c0.7-0.3,1.3-0.7,1.9-1c0.6-0.3,1.3-0.7,1.9-0.9c0.7-0.2,1.3-0.5,2-0.7c0.3-0.1,0.6-0.2,1-0.3c0.3-0.1,0.7-0.2,1-0.2
			c2.6-0.7,5.1-1,7.4-1c1.2,0.1,2.2,0,3.3,0.2c1,0.2,2,0.3,2.9,0.5c0.9,0.2,1.7,0.5,2.4,0.8c0.7,0.3,1.4,0.5,2,0.8
			c1.1,0.6,2,1.1,2.6,1.5c0.6,0.4,0.9,0.6,0.9,0.6l0.2,0.1c0.2,0.2,0.2,0.5,0.1,0.7c-0.1,0.1-0.3,0.2-0.4,0.2c0,0-1.2-0.1-3.4-0.3
			c-1.1,0-2.4,0-3.9,0.1c-0.8,0.1-1.6,0.2-2.4,0.3c-0.8,0.1-1.7,0.4-2.6,0.5c-0.9,0.2-1.8,0.5-2.8,0.8c-1,0.3-1.9,0.7-2.9,1.2
			l-0.7,0.3l-0.7,0.4c-0.5,0.3-1,0.5-1.4,0.8c-1,0.5-1.9,1.3-2.9,1.9c-0.9,0.7-1.9,1.4-2.7,2.3c-0.9,0.8-1.8,1.6-2.6,2.6l-1.3,1.4
			l-1.2,1.4c-0.8,0.9-1.5,2-2.3,3c-0.7,1-1.4,2.1-2.1,3.1c-0.6,1.1-1.3,2.1-1.9,3.2c-1.2,2.1-2.3,4.3-3.4,6.5
			c-1,2.1-1.9,4.2-2.7,6.3c-0.8,2-1.5,4-2.1,5.8c-1.2,3.6-2.1,6.6-2.6,8.8c-0.6,2.1-0.8,3.4-0.8,3.4c-0.1,0.3-0.3,0.4-0.5,0.4
			c-0.2,0-0.3-0.1-0.3-0.3L151.8,212.1z"/>
	</g>
	<g>
		<path class="st5" d="M248.9,170.4c0,0,0,0,0.1-0.1c0.1-0.1,0.2-0.2,0.4-0.3c0.4-0.3,0.9-0.7,1.6-1.1c0.7-0.4,1.6-0.9,2.7-1.2
			c0.5-0.2,1.1-0.4,1.7-0.5c0.6-0.2,1.3-0.3,2-0.4c1.4-0.2,2.9-0.3,4.5-0.2c1.6,0.1,3.3,0.3,5,0.8c1.7,0.4,3.4,1.1,5.1,1.9
			c0.9,0.4,1.6,0.9,2.4,1.4c0.8,0.5,1.6,1,2.3,1.6c1.4,1.3,2.8,2.5,3.9,3.9c0.6,0.7,1.1,1.4,1.6,2.1c0.5,0.7,1.1,1.4,1.4,2.2
			c0.8,1.5,1.5,3,2,4.4c0.5,1.5,0.8,2.9,1,4.2c0.1,0.7,0.2,1.3,0.3,1.9c0,0.6,0.1,1.2,0.1,1.7c0,1.1,0,2.1-0.1,2.9
			c-0.1,0.8-0.2,1.4-0.2,1.8c-0.1,0.4-0.1,0.7-0.1,0.7l-0.1,0.2c-0.1,0.2-0.3,0.3-0.4,0.3c-0.1,0-0.2-0.1-0.2-0.2
			c0,0-0.3-0.7-0.9-1.9c-0.3-0.6-0.7-1.3-1.1-2.2c-0.2-0.4-0.4-0.9-0.7-1.3c-0.3-0.5-0.5-0.9-0.8-1.4c-0.6-1-1.2-2.1-1.9-3.2
			c-0.8-1.1-1.6-2.2-2.5-3.3c-0.4-0.6-0.9-1.1-1.4-1.7c-0.5-0.5-1-1.1-1.5-1.6c-0.5-0.6-1.1-1-1.7-1.5l-1.7-1.5
			c-0.6-0.5-1.2-0.9-1.8-1.3c-0.6-0.4-1.2-0.9-1.9-1.3c-0.7-0.4-1.3-0.7-1.9-1.1c-0.6-0.4-1.3-0.6-2-0.9c-1.3-0.6-2.6-1-3.9-1.4
			c-0.6-0.2-1.3-0.3-1.9-0.5c-0.6-0.1-1.2-0.3-1.8-0.4c-0.6-0.1-1.1-0.2-1.6-0.3c-0.5-0.1-1-0.1-1.5-0.1c-0.9-0.1-1.7-0.1-2.4-0.1
			c-0.7,0-1.2,0-1.5,0.1c-0.3,0-0.5,0.1-0.5,0.1c-0.2,0-0.4-0.1-0.4-0.3c0-0.1,0-0.2,0.1-0.3L248.9,170.4z"/>
	</g>
	<path class="st14" d="M196,114.5c-2.9,13.4,23.4,43.3,47.1,27.8C257.3,91.3,279,7.9,272,3.6S226.6,69.8,196,114.5z"/>
	<path class="st15" d="M268.7,9.5c-31.3,59.3-63,115.7-51.3,130c-16.7-5-22.7-26.7-22.7-26.7S254,15.5,268.7,9.5z"/>
	<g>
		<g>
			<path class="st16" d="M220.5,76.9c-8.7,21.3,31.4,26.9,21.8,66.9"/>
			<path class="st16" d="M241.9,42.5c-12.3,25,19.4,35.6,12.5,58.7"/>
		</g>
		<path class="st16" d="M258.3,17.5c-10.5,16.6,9.3,27.6,4.3,50.1"/>
	</g>
	<path class="st10" d="M196,114.5c-2.9,13.4,23.4,43.3,47.1,27.8C257.3,91.3,279,7.9,272,3.6S226.6,69.8,196,114.5z"/>
	<g>
		<g>
			<path class="st17" d="M301.7,256.4c0,0,0,0,0-0.2c0-0.1,0.1-0.3,0.1-0.5c0.1-0.4,0.3-0.9,0.7-1.5c0.3-0.6,0.8-1.2,1.5-1.9
				c0.3-0.3,0.7-0.6,1.1-0.9c0.4-0.2,0.8-0.5,1.3-0.7l0.7-0.3c0.2-0.1,0.5-0.1,0.7-0.2c0.5-0.1,1-0.2,1.4-0.2c0.5,0,0.9,0,1.4,0.1
				c0.4,0,0.8,0.2,1.2,0.3c0.3,0.1,0.7,0.2,0.9,0.4c0.3,0.2,0.5,0.3,0.6,0.4c0.3,0.2,0.5,0.4,0.5,0.4c0.6,0.6,0.6,1.6-0.1,2.2
				c-0.1,0.1-0.3,0.2-0.5,0.3l-0.3,0.1c0,0-0.2,0.1-0.5,0.2c-0.2,0-0.3,0.1-0.5,0.1c-0.2,0-0.4,0.1-0.6,0.2c-0.2,0-0.4,0.1-0.7,0.2
				c-0.2,0.1-0.5,0.1-0.7,0.2c-0.2,0.1-0.5,0.1-0.7,0.2c-0.2,0.1-0.5,0.2-0.7,0.2c-0.3,0.1-0.5,0.2-0.8,0.3
				c-0.3,0.1-0.5,0.2-0.8,0.3c-0.5,0.2-1,0.5-1.5,0.7c-0.2,0.1-0.5,0.2-0.6,0.3c-0.2,0.1-0.4,0.2-0.5,0.2c-0.1,0.1-0.3,0.1-0.3,0.1
				c-0.1,0-0.1,0.1-0.1,0.1c-0.6,0.4-1.4,0.2-1.7-0.4c-0.1-0.2-0.2-0.3-0.2-0.5L301.7,256.4z"/>
		</g>
		<g>
			<path class="st5" d="M301.7,257.6c0,0,0-0.1,0-0.2c0-0.1-0.1-0.3-0.1-0.6c0-0.2-0.1-0.5,0-0.9c0-0.3,0-0.7,0.1-1.1
				c0.1-0.8,0.3-1.8,0.8-2.8c0.2-0.5,0.6-1.1,1-1.6c0.4-0.5,1-1.1,1.6-1.5c0.7-0.4,1.5-0.7,2.3-0.8c0.8-0.1,1.6,0,2.2,0.1
				c0.3,0.1,0.6,0.2,0.9,0.3c0.3,0.1,0.5,0.3,0.8,0.4c0.5,0.3,0.9,0.6,1.2,0.9c0.3,0.3,0.6,0.6,0.8,0.8c0.2,0.3,0.4,0.5,0.5,0.7
				c0.3,0.4,0.4,0.7,0.4,0.7c0.4,0.8,0,1.7-0.7,2c-0.3,0.1-0.6,0.2-0.9,0.1l-0.2,0c0,0-0.3,0-0.6-0.2c-0.4-0.1-0.9-0.3-1.5-0.4
				c-0.3-0.1-0.6-0.1-0.9-0.2c-0.1,0-0.3,0-0.4-0.1c-0.1,0-0.2,0-0.4,0c-0.2,0-0.4,0-0.5,0.1c-0.1,0-0.3,0.1-0.4,0.1
				c-0.1,0.1-0.3,0.2-0.5,0.4c-0.2,0.2-0.4,0.4-0.6,0.6c-0.4,0.5-0.9,1.1-1.2,1.6c-0.4,0.6-0.7,1-0.9,1.4c-0.1,0.2-0.2,0.3-0.3,0.4
				c-0.1,0.1-0.1,0.1-0.1,0.1L304,258c-0.4,0.6-1.2,0.7-1.8,0.3C301.9,258.2,301.8,257.9,301.7,257.6z"/>
		</g>
	</g>
	<g>
		<path class="st4" d="M250.7,256.5c1-1,2-2,3.1-2.9c1.1-0.9,2.2-1.9,3.3-2.8c1.1-0.9,2.3-1.8,3.4-2.6c1.2-0.8,2.3-1.7,3.6-2.4
			c1.2-0.8,2.4-1.5,3.7-2.2c1.2-0.7,2.5-1.4,3.8-2c1.3-0.7,2.6-1.2,3.9-1.8c1.3-0.6,2.7-1.1,4-1.6c1.4-0.5,2.7-1,4.1-1.4
			c1.4-0.4,2.8-0.8,4.2-1.2c1.4-0.4,2.9-0.7,4.3-1c1.4-0.3,2.9-0.5,4.4-0.7c1.5-0.2,3-0.3,4.4-0.4c1.5-0.1,3-0.1,4.5-0.1
			c1.5,0,3,0.2,4.5,0.4c0.8,0.1,1.5,0.2,2.3,0.4c0.4,0.1,0.8,0.2,1.2,0.3l0.6,0.2l0.7,0.2l0.1,0c1.7,0.5,2.9,2.1,2.8,3.8v0
			c0,1.5-0.1,2.8-0.2,4.2c-0.1,1.4-0.3,2.7-0.4,4.1c-0.3,2.7-0.8,5.4-1.4,8.1c-1.2,5.4-2.8,10.7-5.1,15.8c-2.3,5.1-5.3,10-9.3,14.2
			c-2,2.1-4.2,4-6.6,5.7c-2.4,1.7-5,3-7.7,4.1c-0.7,0.3-1.4,0.5-2.1,0.7l-1.1,0.4l-0.9,0.3l-1.9,0.5l-2.2,0.5
			c-0.7,0.2-1.4,0.3-2.1,0.4c-0.7,0.1-1.4,0.2-2.1,0.3c-1.4,0.1-2.8,0.3-4.2,0.3c-1.4,0.1-2.8,0-4.3,0c-1.4-0.1-2.8-0.2-4.2-0.3
			c-2.8-0.3-5.6-0.8-8.3-1.6c-5.4-1.5-10.6-3.6-15.4-6.3c-2.4-1.3-4.8-2.8-7-4.4c-1.1-0.8-2.2-1.6-3.3-2.5c-0.5-0.4-1.1-0.9-1.6-1.3
			c-0.6-0.5-1-0.9-1.7-1.5l3.9,1c-0.3,0-0.7,0.1-1,0.2l-1.1,0.2c-0.7,0.2-1.4,0.3-2.2,0.5c-1.4,0.4-2.9,0.8-4.3,1.3
			c-0.7,0.2-1.4,0.5-2.1,0.8c-0.7,0.3-1.4,0.6-2.1,0.9c-0.7,0.3-1.4,0.7-2,1c-0.7,0.3-1.3,0.8-1.9,1.1l-0.1,0.1
			c-0.8,0.5-1.9,0.2-2.3-0.6c-0.4-0.7-0.3-1.6,0.3-2.1c0.6-0.6,1.2-1.2,1.8-1.7c0.6-0.6,1.2-1.1,1.9-1.6c0.6-0.5,1.3-1,2-1.5
			c0.7-0.5,1.4-1,2.1-1.4c1.4-0.9,2.8-1.8,4.3-2.6c0.7-0.4,1.5-0.8,2.2-1.2l1.2-0.6c0.4-0.2,0.8-0.3,1.3-0.5
			c1.3-0.5,2.6-0.2,3.6,0.7l0.3,0.3c0.3,0.3,0.8,0.8,1.3,1.1c0.5,0.4,0.9,0.8,1.4,1.2c1,0.8,1.9,1.5,3,2.2c2,1.4,4.1,2.8,6.3,4
			c4.3,2.4,8.9,4.3,13.6,5.6c2.4,0.6,4.8,1.1,7.2,1.4c1.2,0.2,2.4,0.2,3.6,0.3c1.2,0,2.4,0.1,3.6,0c1.2,0,2.4-0.2,3.6-0.3
			c0.6-0.1,1.2-0.2,1.8-0.3c0.6-0.1,1.2-0.2,1.7-0.3l1.7-0.4l1.9-0.5l0.9-0.3c0.1,0-0.1,0-0.1,0l0,0l0.1,0l0.1,0l0.2-0.1l0.4-0.1
			c0.6-0.2,1.1-0.4,1.6-0.6c2.2-0.9,4.2-2,6.1-3.3c1.9-1.3,3.7-2.9,5.3-4.6c3.2-3.4,5.8-7.6,7.8-12c2-4.5,3.5-9.2,4.6-14.1
			c0.5-2.4,1-4.9,1.3-7.4c0.2-1.2,0.3-2.5,0.4-3.7c0.1-1.2,0.2-2.5,0.2-3.6l0,0l2.9,3.9c0,0-0.2,0-0.3,0l-0.4-0.1
			c-0.3,0-0.6-0.1-0.9-0.1c-0.6-0.1-1.2-0.1-1.9-0.1c-1.3-0.1-2.5-0.1-3.8-0.1c-1.3,0-2.6,0.1-3.9,0.2c-1.3,0.1-2.6,0.2-3.9,0.4
			c-1.3,0.2-2.6,0.4-3.9,0.6c-0.6,0.1-1.3,0.2-1.9,0.4c-0.6,0.1-1.3,0.3-1.9,0.4c-1.3,0.3-2.6,0.6-3.8,1c-1.3,0.4-2.5,0.7-3.8,1.1
			c-1.3,0.4-2.5,0.8-3.8,1.3c-1.3,0.5-2.5,0.9-3.8,1.4c-1.2,0.5-2.5,1-3.7,1.5c-1.2,0.5-2.5,1-3.7,1.6c-1.2,0.5-2.5,1.1-3.7,1.7
			c-1.2,0.6-2.5,1.2-3.7,1.7c-1.2,0.6-2.5,1.2-3.7,1.8c-1.3,0.6-2.5,1.2-3.8,1.8c-0.8,0.3-1.7,0-2-0.8
			C250.1,257.6,250.3,256.9,250.7,256.5z"/>
	</g>
	<g>
		<path class="st4" d="M263,216.7c0.3,0.7,0.6,1.4,0.9,2c0.3,0.7,0.6,1.3,0.9,2l0.9,2l0.9,1.9l0.9,1.9c0.3,0.6,0.6,1.2,0.8,1.8
			l0.8,1.8c0.1,0.3,0.3,0.6,0.4,0.8l0.2,0.4c0.1,0.1,0.2,0.3,0.2,0.3v0l-0.1,0.1v0l-5.5,1.1c0.1-1.8,0.3-3.6,0.7-5.4
			c0.2-0.9,0.4-1.8,0.7-2.8c0.3-0.9,0.6-1.8,1-2.8c0.8-1.8,1.8-3.7,3.4-5.3c1.5-1.6,3.6-2.9,5.7-3.5c1.1-0.3,2.1-0.5,3.2-0.6
			c1-0.1,2.1,0,3,0.1c1,0.1,1.9,0.3,2.9,0.5c0.5,0.1,0.9,0.2,1.4,0.3l1.2,0.3c0.3,0.1,0.6,0.2,0.9,0.2c0.3,0.1,0.6,0.1,0.9,0.1
			c0.5,0,1,0,1.5-0.3c0.5-0.3,1-0.8,1.4-1.4c0.4-0.7,0.8-1.5,1.1-2.3c0,0,0,0,0.1,0c0,0,0,0,0,0c0.4,0.9,0.6,1.8,0.7,2.8
			c0,1-0.2,2.1-0.9,3.1c-0.7,1-1.8,1.8-3,2.2c-0.6,0.2-1.2,0.3-1.7,0.4c-0.6,0.1-1.1,0-1.7,0l-0.7-0.1l-0.4,0l-0.3,0
			c-0.4,0-0.8-0.1-1.2-0.1c-0.8-0.1-1.6-0.1-2.3-0.1c-1.5,0-2.9,0.3-4,0.7c-1.2,0.5-2.1,1.2-2.9,2.1c-0.8,0.9-1.5,2.2-2.1,3.5
			c-0.6,1.4-1,2.9-1.4,4.4c-0.2,0.8-0.4,1.6-0.6,2.4l-0.5,2.4L270,234c-0.3,1.6-1.9,2.6-3.5,2.3c-0.9-0.2-1.6-0.8-2-1.5l0,0
			l-0.1,0.1l0,0l0,0c-0.2-0.3-0.2-0.5-0.3-0.7c-0.1-0.2-0.2-0.4-0.3-0.6c-0.2-0.4-0.3-0.8-0.4-1.1c-0.3-0.7-0.5-1.5-0.7-2.2
			c-0.2-0.7-0.3-1.5-0.4-2.2c-0.1-0.7-0.2-1.5-0.2-2.3c-0.1-0.8-0.1-1.5-0.1-2.3c0-0.7,0.1-1.5,0.1-2.2c0-0.4,0.1-0.8,0.1-1.1
			c0-0.4,0.1-0.7,0.1-1.1c0.1-0.7,0.2-1.5,0.4-2.2C262.8,216.7,262.8,216.7,263,216.7C262.9,216.7,262.9,216.7,263,216.7z"/>
	</g>
	<path class="st3" d="M167,241.7c10.4,5.5,32.2-5,51.4,7.7c-3.9-15.4-16-16.3-24.3-15.2S176.2,244,167,241.7z"/>
	<g>
		<path class="st4" d="M217.6,224.1c0.2,2,0.5,3.9,0.8,5.8c0.2,0.9,0.3,1.9,0.5,2.8c0.2,0.9,0.4,1.8,0.6,2.7
			c0.2,0.9,0.5,1.7,0.8,2.6c0.3,0.8,0.6,1.6,0.9,2.4l0.9,2.2c0.2,0.3,0.3,0.7,0.4,1c0.1,0.3,0.3,0.7,0.4,1l0,0
			c1.2,1.5,0.9,3.7-0.6,4.9c-1.3,1-3.1,1-4.3,0l-0.4-0.3l-1.6-1.3l-1.6-1.3c-1.1-0.8-2.2-1.6-3.3-2.4c-1.1-0.8-2.2-1.5-3.3-2.1
			c-1.1-0.6-2.2-1.3-3.4-1.8c-2.3-1-4.6-1.7-6.9-2c-2.3-0.3-4.7-0.2-7.3,0.2c-2.5,0.4-5.1,1.1-7.8,1.9l-4.1,1.2
			c-1.4,0.4-3.2,0.8-4.8,1c-1.7,0.2-3.4,0.1-5.1-0.2c-1.7-0.3-3.3-0.9-4.8-1.7c-1.5-0.9-2.8-2-3.8-3.3c-0.5-0.6-0.9-1.3-1.3-2.1
			c-0.3-0.7-0.6-1.5-0.7-2.3c1.3,0.8,2.6,1.4,3.9,1.9c1.3,0.5,2.5,0.8,3.7,0.9c1.2,0.2,2.4,0.2,3.5,0.1c1.2-0.1,2.3-0.2,3.5-0.5
			c1.2-0.3,2.2-0.6,3.5-1.1l4-1.5c2.7-1,5.6-2,8.7-2.7c3.1-0.7,6.5-0.9,9.8-0.5c1.7,0.2,3.3,0.6,4.9,1c1.6,0.5,3.1,1.1,4.6,1.8
			c1.5,0.7,2.8,1.5,4.2,2.3c1.3,0.9,2.6,1.8,3.8,2.7c1.2,1,2.3,2,3.4,3c1.1,1,2.1,2.1,3.1,3.2l-5.3,4.5l0,0
			c-0.4-0.4-0.8-0.9-1.1-1.4c-0.3-0.5-0.6-1-0.8-1.6c-0.2-0.5-0.4-1.1-0.6-1.6c-0.2-0.6-0.3-1.1-0.4-1.7c-0.1-0.6-0.1-1.1-0.2-1.7
			c0-0.5-0.1-1.1,0-1.6c0-1.1,0-2.1,0.2-3.2c0.1-1,0.2-2.1,0.5-3.1c0.2-1,0.4-2,0.7-3C216,227.7,216.7,225.8,217.6,224.1z"/>
	</g>
	<g>
		<path class="st4" d="M169.3,228.7c0,0,0.8,0.7,2,1.6c0.3,0.2,0.6,0.5,1,0.7c0.3,0.3,0.7,0.5,1.1,0.8c0.7,0.5,1.5,1,2.3,1.5
			c0.4,0.2,0.8,0.4,1.2,0.6c0.4,0.2,0.8,0.3,1.2,0.4c0.4,0.1,0.7,0.2,1.1,0.3c0.4,0.1,0.7,0.2,1,0.1c0.3,0,0.6,0,0.9,0.1
			c0.3,0,0.5,0,0.7,0c0.4,0,0.6,0,0.6,0l0.3,0c0.8,0,1.5,0.7,1.5,1.5c0,0.7-0.5,1.3-1.1,1.4c0,0-0.3,0.1-0.8,0.2
			c-0.3,0.1-0.6,0.1-0.9,0.2c-0.4,0-0.8,0-1.2,0.1c-0.5,0-0.9-0.1-1.5-0.1c-0.5-0.1-1-0.2-1.6-0.4c-0.5-0.1-1-0.4-1.6-0.7
			c-0.5-0.2-1-0.6-1.5-0.9c-0.4-0.4-0.9-0.7-1.3-1.1c-0.4-0.4-0.8-0.8-1.1-1.2c-0.6-0.8-1.1-1.7-1.5-2.4c-0.2-0.4-0.3-0.7-0.4-1
			c-0.1-0.3-0.2-0.6-0.2-0.8C169.3,229,169.3,228.7,169.3,228.7z"/>
	</g>
	<path class="st13" d="M234.6,319"/>
	<path class="st18" d="M93.8,238.8c0,0,19.9,38.2,24.8,67.5"/>
	<path class="st13" d="M182.3,360.1"/>
	<path class="st6" d="M90.7,336.5c12.4,22.7,94.2,4.3,107.9,26.8"/>
	<path class="st7" d="M184.3,365.8c14.4,33,78.5,2.4,92.2,24.8"/>
	<path class="st9" d="M217,355.8c16.8,19.6,35.8,3.6,50.9,19.2"/>
	<g>
		<path class="st4" d="M185.7,365.8c0.1,1,0.3,2,0.6,3.1c0.3,1.1,0.6,2.1,1,3.2c0.2,0.5,0.4,1,0.6,1.5c0.2,0.5,0.4,1,0.7,1.5
			c0.6,1,1,2,1.7,2.9l0.9,1.4l1.1,1.3c0.4,0.4,0.7,0.9,1.1,1.3l1.2,1.2c0.7,0.8,1.7,1.5,2.5,2.2c0.8,0.7,1.8,1.3,2.8,1.9
			c0.5,0.3,0.9,0.6,1.4,0.9l1.5,0.7l1.5,0.7c0.5,0.2,1.1,0.4,1.6,0.6c1.1,0.3,2.1,0.8,3.3,1l3.4,0.7l0.8,0.2l0.8,0.1
			c0.6,0.1,1.3,0.2,1.7,0.2c1,0.1,2.1,0,3.2,0c2.3-0.2,4.6-0.5,6.9-1c4.6-1,9.3-2.4,14.1-3.7c2.4-0.7,4.8-1.3,7.3-1.9
			c2.5-0.5,5-1.1,7.6-1.3c2.6-0.3,5.3-0.5,8-0.3c2.7,0.2,5.5,0.8,8.1,1.9c2.6,1.2,4.9,3,6.6,5.2c1.6,2.2,2.7,4.7,3.1,7.2l0,0l0,0
			c-1.5-2-2.9-4-4.2-6c-1.5-2-2.8-4-4.2-5.9l-2.1-2.9l-1-1.5l-1.1-1.4l-2.2-2.8c-0.7-0.9-1.5-1.8-2.3-2.7c-3.1-3.5-6.3-6.8-9.9-9.4
			c-3.6-2.6-7.6-4.4-11.8-5.5c-4.2-1-8.7-1.2-13.2-0.8c-4.5,0.4-9.1,1.3-13.8,2.3c-9.3,2.1-18.6,4.9-28.3,7c-4.8,1.1-9.7,2-14.6,2.7
			c-4.9,0.7-9.9,1.1-14.9,1.3c-4.9,0.2-9.9,0.3-14.9,0c-5-0.3-10.1-1-15-2.3c-5-1.3-9.8-3.1-14.3-5.6c-4.5-2.5-8.7-5.5-12.5-9.1
			c-3.7-3.6-7-7.6-9.7-11.9c-2.8-4.3-5.1-8.8-7-13.5c-0.7-1.8,0.1-3.8,1.9-4.6s3.8,0.1,4.6,1.9l0,0l0,0c3.6,8.6,8.5,16.6,15.1,22.9
			c3.3,3.1,7,5.8,11,8c4,2.2,8.3,3.8,12.7,5c4.5,1.2,9.1,1.8,13.7,2.1c4.7,0.3,9.4,0.2,14.2,0c4.7-0.2,9.4-0.7,14.1-1.4
			c4.7-0.7,9.3-1.6,14-2.8c4.6-1.1,9.3-2.4,13.9-3.7c4.7-1.3,9.4-2.7,14.2-3.8c4.8-1.2,9.8-2.2,14.9-2.5c5.1-0.4,10.5-0.1,15.7,1.3
			c5.2,1.3,10.1,3.9,14.2,7.1c4.2,3.2,7.6,7.1,10.6,11.2c0.7,1,1.4,2.1,2.1,3.1l1.9,3.3l0.9,1.6l0.8,1.7l1.6,3.4
			c1,2.3,1.9,4.6,2.7,6.9c0.8,2.3,1.5,4.7,2.1,7.1l0,0l0,0c-1.8-1.9-3.5-3.6-5.4-4.9c-1.9-1.3-3.9-2.1-6-2.5
			c-2.1-0.4-4.3-0.5-6.5-0.3c-2.2,0.1-4.5,0.4-6.8,0.9c-2.3,0.5-4.6,1-7,1.6l-7.1,1.8c-2.4,0.6-4.8,1.3-7.3,1.8
			c-2.5,0.6-4.9,1.1-7.5,1.6c-2.6,0.4-5.2,0.8-7.9,0.9c-1.4,0-2.7,0.1-4.2,0c-0.8,0-1.4-0.1-2-0.2l-1.1-0.1l-1-0.2l-3.9-0.9
			c-1.3-0.3-2.6-0.8-3.8-1.2c-0.6-0.2-1.3-0.4-1.9-0.7l-1.8-0.9l-1.8-0.9c-0.6-0.3-1.2-0.7-1.8-1c-1.2-0.7-2.4-1.4-3.4-2.3
			c-1.1-0.9-2.2-1.7-3.1-2.7l-1.5-1.4c-0.5-0.5-0.9-1-1.3-1.6l-1.3-1.6l-1.2-1.7c-0.8-1.1-1.4-2.3-2.1-3.5c-0.3-0.6-0.6-1.2-0.9-1.9
			c-0.3-0.6-0.6-1.2-0.8-1.9c-0.5-1.3-0.9-2.6-1.3-3.9c-0.3-1.3-0.6-2.7-0.8-4.2c-0.2-1.9,1.2-3.6,3.1-3.9
			C183.8,362.5,185.5,363.9,185.7,365.8L185.7,365.8L185.7,365.8z"/>
	</g>
	<g>
		<path class="st4" d="M287.9,206.8c0,0,0.1,0.1,0.1,0.4c0.1,0.2,0.1,0.6,0.2,1c0.1,0.8,0,2-0.7,3.1c-0.2,0.3-0.3,0.6-0.6,0.8
			c-0.2,0.3-0.5,0.5-0.7,0.6c-0.3,0.2-0.5,0.3-0.8,0.4c-0.3,0.1-0.5,0.2-0.8,0.2c-0.2,0-0.5,0.1-0.7,0.1c-0.2,0-0.4,0-0.5,0
			c-0.3,0-0.4,0-0.4,0c-0.8-0.2-1.3-0.9-1.2-1.7c0.1-0.5,0.4-0.8,0.8-1.1l0.4-0.2c0,0,0.1,0,0.2-0.1c0.1,0,0.2,0,0.3-0.1
			c0.1,0,0.2-0.1,0.3-0.1c0.1,0,0.2,0,0.3-0.1c0.1,0,0.3-0.1,0.4-0.1c0.1,0,0.3-0.1,0.4-0.2c0.1,0,0.3-0.1,0.4-0.2
			c0.3-0.2,0.5-0.5,0.8-0.8c0.2-0.3,0.4-0.6,0.6-0.9c0.2-0.3,0.3-0.6,0.4-0.8c0.1-0.2,0.1-0.3,0.1-0.3c0.1-0.1,0.2-0.2,0.4-0.1
			C287.9,206.7,287.9,206.7,287.9,206.8z"/>
	</g>
	<path class="st4" d="M149.7,27.8c0,0-1.7,43.2,10,61c1.5-38.3,5.1-43.5,5.1-43.5L149.7,27.8z"/>
	<path class="st4" d="M224.9,9c0,0-31.1,77.4-25.6,100.6c26.6-43.4,47-74.2,47-74.2L224.9,9z"/>
	<path class="st4" d="M119.3,39.4c0,0-1.9,22.2,8,46.9c-10.6-14.2-22-37.6-22-37.6"/>
	<path class="st4" d="M96.9,341.2c10,3.2,41.4-4.7,41.4-4.7s-32.6,2.2-48.9-5.4C97.7,342.7,96.9,341.2,96.9,341.2z"/>
	<path class="st4" d="M199.3,387c-12.8-14.4,9-25.9,30.8-27.9c-2.5-9.6-27.7,2-47.9,8.1C188.3,385.8,199.3,387,199.3,387z"/>
	<path class="st4" d="M19.7,165.6c12.9-10.3,20.2,29.5,45.8,51.5c-8.3-23.3-19.8-70.6-19.8-70.6S21,150.8,19.7,165.6z"/>
	<path class="st4" d="M77.3,229.6c17.8,12.8,40.2,73.2,27.2,69c14,7.6,15.3,8.9,15.3,8.9s-24.9-68.4-26.3-70.2
		C92.1,235.5,77.3,229.6,77.3,229.6z"/>
	<g class="st0">
		<path class="st1" d="M77.4,359.5"/>
	</g>
	<path class="st4" d="M224.5,281.1c0,14.3-0.8,33.8,27.3,39.2c-5.2-4.6-7.4-21.2-1.6-27.6"/>
	<path class="st19" d="M211.3,287.1c11.1-6.4,12.3,7.9,12.3,7.9l1.8-14.9L211.3,287.1z"/>
	<g>
		<path class="st20" d="M236.3,299.6c-0.4-4.9-4.8-8.9-8.7-7.7c0,0-3.1,14.1,11.7,21.2c0,0,5.9-14.4-4.5-17.7"/>
		<g>
			<g>
				<path class="st4" d="M225.5,290.7c0,0,0,0,0.1-0.1c0,0,0.1-0.1,0.2-0.2c0.1-0.1,0.2-0.2,0.4-0.3c0.3-0.2,0.6-0.4,1-0.5
					c0.4-0.1,0.9-0.3,1.4-0.3c1-0.1,2.1,0.2,3.2,0.6c1.1,0.5,2.1,1.1,2.9,2c0.8,0.8,1.6,1.8,2,2.8c0.2,0.5,0.5,1,0.6,1.5
					c0.1,0.5,0.2,1,0.3,1.4c0.1,0.9-0.1,1.6-0.2,2.1c-0.1,0.5-0.3,0.8-0.3,0.8c-0.1,0.3-0.5,0.4-0.7,0.3c-0.2-0.1-0.3-0.2-0.3-0.4
					l0,0c0,0,0-0.3-0.1-0.7c0-0.2-0.1-0.5-0.1-0.8c0-0.3-0.1-0.6-0.2-0.9c-0.2-0.7-0.4-1.4-0.9-2.2c-0.4-0.8-1-1.5-1.7-2.1
					c-0.7-0.6-1.5-1.1-2.2-1.5c-0.8-0.3-1.5-0.5-2.1-0.5c-0.3,0-0.5,0-0.7,0.1c-0.2,0.1-0.4,0.2-0.5,0.2c0,0-0.1,0-0.1,0.1
					c-0.1,0.1-0.1,0.1-0.2,0.1c-0.1,0.1-0.1,0.1-0.1,0.1c-0.5,0.4-1.1,0.3-1.5-0.1C225.1,291.8,225.1,291.1,225.5,290.7z"/>
			</g>
			<path class="st21" d="M235.8,293.4"/>
			<path class="st21" d="M243.8,312.3"/>
		</g>
	</g>
	<g>
		<path class="st4" d="M227.8,280.2c0,0,0,0.2,0,0.6c0,0.4,0,1,0,1.7c0,1.4,0.1,3.5,0.3,5.9c0.3,2.4,0.6,5.3,1.4,8.2
			c0.7,2.9,1.9,5.9,3.4,8.7c0.8,1.4,1.6,2.7,2.6,3.9c1,1.2,2,2.3,3.1,3.3c0.5,0.5,1.1,0.9,1.7,1.4c0.6,0.4,1.2,0.8,1.7,1.2
			c0.6,0.3,1.1,0.7,1.7,1c0.6,0.3,1.1,0.6,1.7,0.8c0.6,0.2,1.1,0.5,1.6,0.7c0.5,0.2,1,0.4,1.5,0.6c0.9,0.4,1.8,0.6,2.4,0.9
			c1.4,0.4,2.2,0.7,2.2,0.7l0.1,0c0.5,0.2,0.8,0.8,0.6,1.4c-0.2,0.4-0.5,0.6-0.9,0.7c0,0-0.9,0-2.5,0c-0.8-0.1-1.7-0.1-2.8-0.3
			c-0.5-0.1-1.1-0.2-1.7-0.3c-0.6-0.1-1.2-0.3-1.9-0.5c-1.3-0.4-2.7-1-4.1-1.7c-0.7-0.4-1.4-0.8-2.1-1.2c-0.7-0.5-1.4-0.9-2.1-1.5
			c-1.4-1-2.7-2.3-4-3.7c-1.2-1.4-2.3-2.9-3.3-4.5c-2-3.2-3.3-6.6-4.3-9.9c-0.9-3.3-1.5-6.4-1.8-9.1c-0.3-2.7-0.4-4.9-0.4-6.5
			c0-0.8,0-1.4,0-1.8c0-0.4,0-0.6,0-0.6c0-1.7,1.4-3,3-3C226.5,277.2,227.8,278.5,227.8,280.2z"/>
	</g>
	<g>
		<path class="st21" d="M248.5,319.1"/>
		<path class="st21" d="M239,303"/>
		<path class="st21" d="M248.7,303.2"/>
		<path class="st21" d="M260,320.4"/>
	</g>
	<path class="st22" d="M233.4,320.6"/>
	<g>
		<g>
			<path class="st17" d="M256,270.6c0,0,0-0.1,0.1-0.2c0.1-0.1,0.3-0.3,0.5-0.5c0.2-0.2,0.4-0.4,0.7-0.6c0.3-0.2,0.6-0.5,1-0.7
				c0.8-0.5,1.7-0.9,2.8-1.2c0.5-0.1,1.1-0.3,1.7-0.4c0.6-0.1,1.2-0.2,1.8-0.1l0.9,0c0.3,0,0.6,0.1,0.9,0.1c0.6,0.1,1.2,0.3,1.8,0.5
				c0.6,0.2,1.1,0.4,1.5,0.7c0.5,0.2,0.9,0.5,1.3,0.8c0.7,0.6,1.2,1.2,1.5,1.6c0.3,0.4,0.5,0.7,0.5,0.7c0.5,0.9,0.1,2.1-0.9,2.5
				c-0.3,0.1-0.5,0.2-0.8,0.2l-0.4,0c0,0-0.3,0-0.7-0.1c-0.2,0-0.5-0.1-0.7-0.1c-0.3,0-0.6,0-0.9-0.1c-0.2,0-0.3,0-0.5-0.1
				c-0.2,0-0.3,0-0.5-0.1c-0.3,0-0.7-0.1-1-0.1c-0.4,0-0.7-0.1-1.1-0.1c-0.4-0.1-0.8-0.1-1.1-0.1c-0.4-0.1-0.8,0-1.2-0.1
				c-0.4,0-0.8,0-1.2,0c-0.8,0-1.6,0-2.3,0c-0.4,0-0.7,0-1,0c-0.3,0-0.6,0-0.8,0c-0.2,0-0.4,0-0.5,0c-0.1,0-0.2,0-0.2,0
				c-0.8,0.1-1.6-0.5-1.7-1.4c0-0.3,0-0.5,0.1-0.8L256,270.6z"/>
		</g>
		<g>
			<path class="st5" d="M255.4,271.9c0,0,0-0.1,0.1-0.3c0.1-0.2,0.1-0.4,0.3-0.7c0.1-0.3,0.3-0.6,0.5-1c0.2-0.4,0.5-0.8,0.8-1.2
				c0.6-0.9,1.5-1.8,2.7-2.6c0.6-0.4,1.3-0.8,2.1-1.1c0.8-0.3,1.6-0.5,2.6-0.6c0.9-0.1,1.9,0,2.7,0.3c0.9,0.2,1.7,0.6,2.4,1
				c0.7,0.4,1.2,0.9,1.7,1.4c0.4,0.5,0.8,1,1.1,1.5c0.3,0.5,0.5,0.9,0.7,1.3c0.2,0.4,0.3,0.7,0.4,1.1c0.2,0.6,0.2,0.9,0.2,0.9
				c0.1,1-0.6,2-1.6,2.1c-0.4,0.1-0.8,0-1.1-0.2l-0.2-0.1c0,0-0.3-0.1-0.7-0.4c-0.4-0.3-1-0.7-1.6-1.1c-0.3-0.2-0.6-0.4-1-0.6
				c-0.2-0.1-0.3-0.2-0.5-0.2c-0.2-0.1-0.3-0.1-0.5-0.2c-0.3-0.1-0.6-0.2-0.9-0.2c-0.3-0.1-0.5-0.1-0.8-0.1c-0.6,0-1.3,0.1-2.1,0.4
				c-0.8,0.3-1.6,0.6-2.3,1c-0.3,0.2-0.7,0.3-1,0.5c-0.3,0.2-0.6,0.3-0.8,0.4c-0.2,0.1-0.4,0.2-0.5,0.3c-0.1,0.1-0.2,0.1-0.2,0.1
				c-0.5,0.6-1.4,0.8-2,0.3C255,273.4,254.9,272.5,255.4,271.9z"/>
		</g>
	</g>
</g>
</svg>
