<?xml version="1.0" encoding="utf-8"?>
<!-- Generator: Adobe Illustrator 18.1.0, SVG Export Plug-In . SVG Version: 6.00 Build 0)  -->
<!DOCTYPE svg PUBLIC "-//W3C//DTD SVG 1.1//EN" "http://www.w3.org/Graphics/SVG/1.1/DTD/svg11.dtd">
<svg version="1.1" id="Layer_1" xmlns="http://www.w3.org/2000/svg" xmlns:xlink="http://www.w3.org/1999/xlink" x="0px" y="0px"
	 viewBox="0 0 887 590" enable-background="new 0 0 887 590" xml:space="preserve">
<g>
	<path fill="#F4E9B2" stroke="#C9AD77" stroke-width="5" stroke-miterlimit="10" d="M217.1,309.6l76.3,4c0,0,22.4-0.8,21.8,8.1
		c-0.4,5.5-18.5,1.8-18.5,1.8l-80.1-0.3L217.1,309.6z"/>
	<path fill="#F4E9B2" stroke="#C9AD77" stroke-width="5.478" stroke-miterlimit="10" d="M151.6,468.3l7.7,35c0,0-10.2,13.4-2.2,13.4
		c5.8,0,10.7-13.4,10.7-13.4s5.4,13.4,8.5,13.4c9.7,0,1.6-13.4,1.6-13.4l9.4-35H151.6z"/>
	<line fill="#F4E9B2" stroke="#C9AD77" stroke-width="5.478" stroke-miterlimit="10" x1="167.7" y1="453" x2="167.7" y2="503.8"/>
	<path fill="#603913" stroke="#3C2415" stroke-width="5" stroke-miterlimit="10" d="M85.7,284.9c0,0,27.2,36,59.2,44.3
		c32,8.3,102-28.6,102.7-46.7c0.7-18.1,41.3-110.3,41.3-110.3l-113.3-27.3l-89.9,29C85.7,173.9,43.2,247.4,85.7,284.9z"/>
	<polygon fill="#F4E9B2" stroke="#C9AD77" stroke-width="5" stroke-miterlimit="10" points="123,369.6 135.6,410.9 127.9,416.9 
		109.8,372.7 110.5,347.6 128.2,335.9 	"/>
	<path fill="#414042" stroke="#000000" stroke-width="5" stroke-miterlimit="10" d="M139,382.9c0,0-27.4,26.7-38.7,73.3
		c0,0,107.4,62.7,126.1-6c0,0,3.3-37.3-30.7-67.3C195.6,382.9,156.5,359.9,139,382.9z"/>
	<path fill="#F4E9B2" stroke="#C9AD77" stroke-width="5" stroke-miterlimit="10" d="M154.9,280.1v33.6c0,0,10.7,23.8,24.3,0v-39.4
		L154.9,280.1z"/>
	<circle fill="#F4E9B2" stroke="#C9AD77" stroke-width="5" stroke-miterlimit="10" cx="172" cy="189.5" r="93"/>
	<path fill="#603913" stroke="#3C2415" stroke-width="5" stroke-miterlimit="10" d="M127.9,107.6c0,0-93.7,116.7-21.7,193.7
		c0,0-71-19.5-62-111.8S127.9,107.6,127.9,107.6z"/>
	<path fill="#F4E9B2" stroke="#C9AD77" stroke-width="5" stroke-miterlimit="10" d="M154.9,227.1c0,0,14,10.8,28.7,0"/>
	<path fill="none" stroke="#3C2415" stroke-width="5" stroke-miterlimit="10" d="M100.2,197.2c0,0,40.6-13.7,38.7,7.1"/>
	<path fill="none" stroke="#3C2415" stroke-width="5" stroke-miterlimit="10" d="M240.7,201.8c0,0-37.5-20.8-39.3,0"/>
	<path fill="#F4E9B2" stroke="#C9AD77" stroke-width="5" stroke-miterlimit="10" d="M128.2,238.3c0,0,39.5,36.4,76,0"/>
	<path fill="#739E40" stroke="#387338" stroke-width="5" stroke-miterlimit="10" d="M151.6,301.3c0,0-40.2-3-42.8,46.3
		c0,0,10.1,8,19.4,6l6-8.7l4.7,38c0,0,32.6,16.7,56.6,0l5.9-45.7c0,0,15.2-4.2,16.8-7.5c1.8-3.6,6.8-10.3,8-19.1
		c1.3-8.9,1.9-2.3-42.7-9.3C183.6,301.3,170.1,328.6,151.6,301.3z"/>
	<path fill="#603913" stroke="#3C2415" stroke-width="5" stroke-miterlimit="10" d="M128.2,96.5c0,0,14,56.8,78,71.8s56,47,49,79
		c-7,32-35,66-35,66s55.1-22.4,75.2-60.8c32.8-62.9-3.2-138.2-40.1-156C222.4,80.7,190.2,71.7,128.2,96.5z"/>
	<g>
		<path fill="#E19CC5" d="M151.6,102.9c0,0,0.7,0.6,1.9,1.8c1.2,1.1,3.1,2.8,5.4,4.8c2.4,2,5.3,4.5,8.7,7.2
			c3.4,2.7,7.3,5.7,11.6,8.8c4.3,3.1,9.1,6.3,14.3,9.5c5.2,3.2,10.8,6.3,16.8,9.2c5.9,2.9,12.3,5.5,18.9,7.5l2.5,0.8l2.5,0.7
			c1.7,0.5,3.4,0.9,5.2,1.4c3.6,1,7,2.3,10.4,3.8c6.8,3,13.1,7.3,18.2,12.5c2.6,2.6,4.9,5.5,6.8,8.6c1.9,3.1,3.5,6.3,4.8,9.5
			c1.3,3.2,2.2,6.5,2.9,9.8c0.7,3.3,1.1,6.5,1.4,9.6c0.2,3.1,0.3,6.2,0.3,9.1c-0.1,2.9-0.3,5.8-0.6,8.5c-0.6,5.4-1.5,10.3-2.5,14.6
			c-1,4.3-2,8-3,11c-0.9,3-1.8,5.3-2.3,6.9c-0.6,1.6-0.8,2.4-0.8,2.4s0.1-0.9,0.5-2.5c0.4-1.6,0.9-4,1.6-7.1c0.7-3.1,1.4-6.8,2-11.1
			c0.6-4.3,1.2-9.1,1.5-14.4c0.1-2.6,0.2-5.4,0.1-8.2c-0.1-2.8-0.3-5.8-0.6-8.8c-0.4-3-0.9-6-1.7-9c-0.8-3-1.7-6.1-3-9.1
			c-2.5-6-6.1-11.6-10.9-16.3c-4.7-4.8-10.5-8.6-16.8-11.4c-3.1-1.4-6.4-2.7-9.7-3.6c-1.7-0.5-3.4-1-5.1-1.4l-2.6-0.7l-2.6-0.8
			c-6.8-2.2-13.3-5.1-19.3-8.2c-6.1-3.1-11.6-6.6-16.8-10c-5.2-3.4-9.8-7-14-10.4c-4.2-3.4-7.9-6.7-11.1-9.6c-3.2-3-5.9-5.7-8.1-7.9
			c-2.2-2.2-3.8-4.1-5-5.3C152.2,103.6,151.6,102.9,151.6,102.9z"/>
	</g>
	<g>
		<path fill="none" stroke="#000000" stroke-width="5" stroke-miterlimit="10" d="M148.2,185.6c0,0,1,25.5-3,34.4s-38.5,7.8-49,5.5
			c-10.5-2.2-27-8.1-17.2-46.6L148.2,185.6z"/>
		<path fill="none" stroke="#000000" stroke-width="5" stroke-miterlimit="10" d="M192,185.6c0,0-1,25.5,3,34.4s38.5,7.8,49,5.5
			c10.5-2.2,27-8.1,17.2-46.6L192,185.6z"/>
		<g>
			<path d="M266,174.3l-74,10l-0.1,3.4l0.1-4.6c0,0-25.1-7.5-43.8,0l0,2.2l0-1l-74-12c0,0-1.7,4.7,0,7.3c1.6,2.6,72,9.7,74.1,9.9
				l0,0.2c0,0,23.2-8.1,43.6,0.7l0-0.9c0.4,0,72.4-5.2,74.1-7.9C267.7,178.9,266,174.3,266,174.3z"/>
			<path opacity="0.3" fill="#FFFFFF" d="M79,173.9l65.9,11L80,215.8C80,215.8,71.8,210.9,79,173.9z"/>
			<path opacity="0.3" fill="#FFFFFF" d="M192,187.3c0,0-2.7,28.5,3,32.7c5.7,4.2,66.2-41.1,66.2-41.1L192,187.3z"/>
		</g>
	</g>
	<path d="M153.7,506c0,0,7.2,8.1,14,4c0,0-4.5,12.4-12.9,10.8S153.7,506,153.7,506z"/>
	<path d="M181.7,506c0,0-7.2,8.1-14,4c0,0,4.5,12.4,12.9,10.8S181.7,506,181.7,506z"/>
	<line fill="#739E40" stroke="#387338" stroke-width="5" stroke-miterlimit="10" x1="140.8" y1="302.4" x2="151.6" y2="387.6"/>
	<line fill="#739E40" stroke="#387338" stroke-width="5" stroke-miterlimit="10" x1="191.9" y1="302.9" x2="179.2" y2="390.3"/>
	<line fill="#739E40" stroke="#387338" stroke-width="5" stroke-miterlimit="10" x1="167.1" y1="313.3" x2="166.2" y2="390.3"/>
	<path fill="none" stroke="#3C2415" stroke-width="5" stroke-miterlimit="10" d="M305.5,314.5c0,0-23.1,7.8-20.1,34.4
		c3,26.6,40.5,35.7,33.5,71.9s-40.4,36.1-39.5,75.5"/>
</g>
<circle fill="#D8CEBF" stroke="#3C2415" stroke-width="5" stroke-miterlimit="10" cx="750.2" cy="400.8" r="90.7"/>
<polygon fill="#FFFFFF" points="667.5,321 750.2,404.9 646.5,357.1 "/>
<g>
	<rect x="375.2" y="85.5" fill="none" width="437.4" height="112.9"/>
	<text transform="matrix(1 0 0 1 375.2084 119.1909)"><tspan x="0" y="0" fill="#5B4C61" font-family="'AlegreyaSans-Black'" font-size="48">Human Perception of </tspan><tspan x="0" y="57.6" fill="#5B4C61" font-family="'AlegreyaSans-Black'" font-size="48">a Spinning Rope</tspan></text>
</g>
<g>
	<rect x="575.9" y="235.8" fill="none" width="227" height="48.9"/>
	<text transform="matrix(1 0 0 1 576.386 254.0137)" fill="#696969" font-family="'OpenSans-Light'" font-size="24">sensory memory gap</text>
</g>
<rect x="676.3" y="380.3" fill="none" width="146.7" height="93.5"/>
<text transform="matrix(1 0 0 1 677.488 398.5271)"><tspan x="0" y="0" fill="#696969" font-family="'OpenSans-Light'" font-size="24">1 full rotation </tspan><tspan x="3.4" y="28.8" fill="#696969" font-family="'OpenSans-Light'" font-size="24">every 120ms</tspan></text>
<circle fill="#D8CEBF" stroke="#3C2415" stroke-width="5" stroke-miterlimit="10" cx="495.2" cy="400.8" r="90.7"/>
<rect x="421.3" y="380.3" fill="none" width="146.7" height="93.5"/>
<text transform="matrix(1 0 0 1 422.488 398.5271)"><tspan x="0" y="0" fill="#696969" font-family="'OpenSans-Light'" font-size="24">1 full rotation </tspan><tspan x="3.4" y="28.8" fill="#696969" font-family="'OpenSans-Light'" font-size="24">every 100ms</tspan></text>
<line opacity="0.8" fill="none" stroke="#13ADBC" stroke-width="2" stroke-miterlimit="10" stroke-dasharray="10" x1="659.5" y1="271.3" x2="673.3" y2="348.3"/>
</svg>
