<?xml version="1.0" encoding="utf-8"?>
<!-- Generator: Adobe Illustrator 18.1.0, SVG Export Plug-In . SVG Version: 6.00 Build 0)  -->
<!DOCTYPE svg PUBLIC "-//W3C//DTD SVG 1.1//EN" "http://www.w3.org/Graphics/SVG/1.1/DTD/svg11.dtd">
<svg version="1.1" id="Layer_1" xmlns="http://www.w3.org/2000/svg" xmlns:xlink="http://www.w3.org/1999/xlink" x="0px" y="0px"
	 viewBox="0 0 887 590" enable-background="new 0 0 887 590" xml:space="preserve">
<g>
	<path fill="#F4E9B2" stroke="#C9AD77" stroke-width="5" stroke-miterlimit="10" d="M217.1,309.6l76.3,4c0,0,22.4-0.8,21.8,8.1
		c-0.4,5.5-18.5,1.8-18.5,1.8l-80.1-0.3L217.1,309.6z"/>
	<path fill="#F4E9B2" stroke="#C9AD77" stroke-width="5.478" stroke-miterlimit="10" d="M151.6,468.3l7.7,35c0,0-10.2,13.4-2.2,13.4
		c5.8,0,10.7-13.4,10.7-13.4s5.4,13.4,8.5,13.4c9.7,0,1.6-13.4,1.6-13.4l9.4-35H151.6z"/>
	<line fill="#F4E9B2" stroke="#C9AD77" stroke-width="5.478" stroke-miterlimit="10" x1="167.7" y1="453" x2="167.7" y2="503.8"/>
	<path fill="#603913" stroke="#3C2415" stroke-width="5" stroke-miterlimit="10" d="M85.7,284.9c0,0,27.2,36,59.2,44.3
		c32,8.3,102-28.6,102.7-46.7c0.7-18.1,41.3-110.3,41.3-110.3l-113.3-27.3l-89.9,29C85.7,173.9,43.2,247.4,85.7,284.9z"/>
	<path fill="#F4E9B2" stroke="#C9AD77" stroke-width="5" stroke-miterlimit="10" d="M109.5,356.4l18.4,33.9c0,0-7.4,21.2-13.4,21.2
		s1.2-19.7,1.2-19.7L96,357.3l17.3-38.4l15.1,14.3L109.5,356.4z"/>
	<path fill="#414042" stroke="#000000" stroke-width="5" stroke-miterlimit="10" d="M139,382.9c0,0-27.4,26.7-38.7,73.3
		c0,0,107.4,62.7,126.1-6c0,0,3.3-37.3-30.7-67.3C195.6,382.9,156.5,359.9,139,382.9z"/>
	<path fill="#F4E9B2" stroke="#C9AD77" stroke-width="5" stroke-miterlimit="10" d="M154.9,280.1v33.6c0,0,10.7,23.8,24.3,0v-39.4
		L154.9,280.1z"/>
	<circle fill="#F4E9B2" stroke="#C9AD77" stroke-width="5" stroke-miterlimit="10" cx="172" cy="189.5" r="93"/>
	<path fill="#603913" stroke="#3C2415" stroke-width="5" stroke-miterlimit="10" d="M127.9,107.6c0,0-93.7,116.7-21.7,193.7
		c0,0-71-19.5-62-111.8S127.9,107.6,127.9,107.6z"/>
	<path fill="#F4E9B2" stroke="#C9AD77" stroke-width="5" stroke-miterlimit="10" d="M154.9,227.1c0,0,14,10.8,28.7,0"/>
	<path fill="none" stroke="#3C2415" stroke-width="5" stroke-miterlimit="10" d="M100.2,197.2c0,0,40.6-13.7,38.7,7.1"/>
	<path fill="none" stroke="#3C2415" stroke-width="5" stroke-miterlimit="10" d="M240.7,201.8c0,0-37.5-20.8-39.3,0"/>
	<path fill="#F4E9B2" stroke="#C9AD77" stroke-width="5" stroke-miterlimit="10" d="M151.6,251.6c0,0,27.7,12.9,52.7-13.3"/>
	<path fill="#739E40" stroke="#387338" stroke-width="5" stroke-miterlimit="10" d="M151.6,301.3c0,0-32.6-6.3-48.4,39.2
		c0,0,11,11,20.3,9l9.7-6.6l5.7,40c0,0,32.6,16.7,56.6,0l5.9-45.7c0,0,15.2-4.2,16.8-7.5c1.8-3.6,6.8-10.3,8-19.1
		c1.3-8.9,1.9-2.3-42.7-9.3C183.6,301.3,170.1,328.6,151.6,301.3z"/>
	<path fill="#603913" stroke="#3C2415" stroke-width="5" stroke-miterlimit="10" d="M128.2,96.5c0,0,14,56.8,78,71.8s56,47,49,79
		c-7,32-35,66-35,66s55.1-22.4,75.2-60.8c32.8-62.9-3.2-138.2-40.1-156C222.4,80.7,190.2,71.7,128.2,96.5z"/>
	<g>
		<path fill="#E19CC5" d="M151.6,102.9c0,0,0.7,0.6,1.9,1.8c1.2,1.1,3.1,2.8,5.4,4.8c2.4,2,5.3,4.5,8.7,7.2
			c3.4,2.7,7.3,5.7,11.6,8.8c4.3,3.1,9.1,6.3,14.3,9.5c5.2,3.2,10.8,6.3,16.8,9.2c5.9,2.9,12.3,5.5,18.9,7.5l2.5,0.8l2.5,0.7
			c1.7,0.5,3.4,0.9,5.2,1.4c3.6,1,7,2.3,10.4,3.8c6.8,3,13.1,7.3,18.2,12.5c2.6,2.6,4.9,5.5,6.8,8.6c1.9,3.1,3.5,6.3,4.8,9.5
			c1.3,3.2,2.2,6.5,2.9,9.8c0.7,3.3,1.1,6.5,1.4,9.6c0.2,3.1,0.3,6.2,0.3,9.1c-0.1,2.9-0.3,5.8-0.6,8.5c-0.6,5.4-1.5,10.3-2.5,14.6
			c-1,4.3-2,8-3,11c-0.9,3-1.8,5.3-2.3,6.9c-0.6,1.6-0.8,2.4-0.8,2.4s0.1-0.9,0.5-2.5c0.4-1.6,0.9-4,1.6-7.1c0.7-3.1,1.4-6.8,2-11.1
			c0.6-4.3,1.2-9.1,1.5-14.4c0.1-2.6,0.2-5.4,0.1-8.2c-0.1-2.8-0.3-5.8-0.6-8.8c-0.4-3-0.9-6-1.7-9c-0.8-3-1.7-6.1-3-9.1
			c-2.5-6-6.1-11.6-10.9-16.3c-4.7-4.8-10.5-8.6-16.8-11.4c-3.1-1.4-6.4-2.7-9.7-3.6c-1.7-0.5-3.4-1-5.1-1.4l-2.6-0.7l-2.6-0.8
			c-6.8-2.2-13.3-5.1-19.3-8.2c-6.1-3.1-11.6-6.6-16.8-10c-5.2-3.4-9.8-7-14-10.4c-4.2-3.4-7.9-6.7-11.1-9.6c-3.2-3-5.9-5.7-8.1-7.9
			c-2.2-2.2-3.8-4.1-5-5.3C152.2,103.6,151.6,102.9,151.6,102.9z"/>
	</g>
	<g>
		<path fill="none" stroke="#000000" stroke-width="5" stroke-miterlimit="10" d="M148.2,185.6c0,0,1,25.5-3,34.4s-38.5,7.8-49,5.5
			c-10.5-2.2-27-8.1-17.2-46.6L148.2,185.6z"/>
		<path fill="none" stroke="#000000" stroke-width="5" stroke-miterlimit="10" d="M192,185.6c0,0-1,25.5,3,34.4s38.5,7.8,49,5.5
			c10.5-2.2,27-8.1,17.2-46.6L192,185.6z"/>
		<g>
			<path d="M266,174.3l-74,10l-0.1,3.4l0.1-4.6c0,0-25.1-7.5-43.8,0l0,2.2l0-1l-74-12c0,0-1.7,4.7,0,7.3c1.6,2.6,72,9.7,74.1,9.9
				l0,0.2c0,0,23.2-8.1,43.6,0.7l0-0.9c0.4,0,72.4-5.2,74.1-7.9C267.7,178.9,266,174.3,266,174.3z"/>
			<path opacity="0.3" fill="#FFFFFF" d="M79,173.9l65.9,11L80,215.8C80,215.8,71.8,210.9,79,173.9z"/>
			<path opacity="0.3" fill="#FFFFFF" d="M192,187.3c0,0-2.7,28.5,3,32.7c5.7,4.2,66.2-41.1,66.2-41.1L192,187.3z"/>
		</g>
	</g>
	<path d="M153.7,506c0,0,7.2,8.1,14,4c0,0-4.5,12.4-12.9,10.8S153.7,506,153.7,506z"/>
	<path d="M181.7,506c0,0-7.2,8.1-14,4c0,0,4.5,12.4,12.9,10.8S181.7,506,181.7,506z"/>
	<line fill="#739E40" stroke="#387338" stroke-width="5" stroke-miterlimit="10" x1="140.8" y1="302.4" x2="151.6" y2="387.6"/>
	<line fill="#739E40" stroke="#387338" stroke-width="5" stroke-miterlimit="10" x1="191.9" y1="302.9" x2="179.2" y2="390.3"/>
	<line fill="#739E40" stroke="#387338" stroke-width="5" stroke-miterlimit="10" x1="167.1" y1="313.3" x2="166.2" y2="390.3"/>
	<path fill="none" stroke="#3C2415" stroke-width="5" stroke-miterlimit="10" d="M305.5,314.5c0,0-23.1,7.8-20.1,34.4
		c3,26.6,40.5,35.7,33.5,71.9s-40.4,36.1-39.5,75.5"/>
</g>
<circle fill="#D8CEBF" cx="750.2" cy="400.8" r="98.7"/>
<polygon fill="#FFFFFF" points="667.5,321 750.2,404.9 646.5,357.1 "/>
<g>
	<g>
		<path fill="#5B4C61" d="M406.3,119.2h-9.6l0.5-9.1l0-2.4l-5.2-0.1l-4.5,0.1l0,1.4l0.4,10.1h-9.6l0.5-9.1l-0.5-21.9h9.8l-0.3,11.8
			l4.8,0.1l4.4-0.1l-0.2-11.8h9.8l-0.5,21L406.3,119.2z"/>
		<path fill="#5B4C61" d="M429.5,111.9c0,2.5-0.9,4.4-2.5,5.7c-1.6,1.3-4,2-7,2c-2.9,0-5.2-0.7-6.7-2c-1.6-1.3-2.3-3.2-2.2-5.7
			l0.1-3.5l-0.2-11h6.8l-0.3,13.6c0,1.1,0.2,2,0.7,2.5c0.5,0.5,1.2,0.8,2.2,0.8c1.1,0,1.8-0.3,2.3-0.8c0.5-0.5,0.7-1.3,0.7-2.5
			l-0.3-13.6h6.9l-0.2,11L429.5,111.9z"/>
		<path fill="#5B4C61" d="M451.4,119.2l-0.2-6.6l-0.4-5.5h-0.4l-3.5,10h-5.1l-2.9-10h-0.4l-0.5,4.8l-0.3,7.2h-5.6l2.1-21.7h7.8
			l0.6,3.1l1.9,7.9h0.4l2.1-7.7l0.8-3.3h7.7l1.7,21.7H451.4z"/>
		<path fill="#5B4C61" d="M472.3,119.2l-0.6-3.6l0-0.1l-3.3-0.1l-2.8,0.1l-0.6,3.6h-6.6l6.6-21.7h8.1l5.9,21.7H472.3z M469.1,103.5
			h-0.4l-1.9,7.1l1.9,0l1.9,0L469.1,103.5z"/>
		<path fill="#5B4C61" d="M501.2,119.2h-7.3l-6.1-11.6h-0.4l0,3.8l0.3,7.9h-6.1l0.3-6.4l-0.3-15.4h7.3l6.1,11.6h0.4l-0.2-11.4
			l6.2-0.4l-0.4,14.8L501.2,119.2z"/>
		<path fill="#5B4C61" d="M535.4,90.7c1.9,1.7,2.8,4.2,2.8,7.3c0,2.5-0.6,4.6-1.7,6.5c-1.2,1.9-2.8,3.3-4.9,4.4
			c-2.1,1-4.5,1.6-7.3,1.6H522l0.3,8.8h-9.6l0.5-9.1l-0.5-21.9l14.7,0C530.9,88.1,533.5,88.9,535.4,90.7z M527.5,101.8
			c0.4-0.8,0.6-1.7,0.6-2.9c0-1.4-0.3-2.4-1-3.1c-0.7-0.7-1.7-1-3.2-1.1l-1.7,0.1l-0.2,8.6l3.6,0.2
			C526.5,103.2,527.1,102.6,527.5,101.8z"/>
		<path fill="#5B4C61" d="M556,114.3l-0.4,4.9h-15.3l0.3-6.4l-0.3-15.4h15.6l0.4,0.5l-0.4,4.9l-5.3-0.2H547l-0.1,3.1h3.3l3.5-0.1
			l0.4,0.5l-0.4,4.9l-3.9-0.1h-3l0,1.3l0.1,1.9h3.2l5.6-0.2L556,114.3z"/>
		<path fill="#5B4C61" d="M577.6,117.6l-0.1,0.7c-2.3,0.7-4.5,1.1-6.8,1.2l-0.6-0.5c-1.4-3.1-2.4-5.2-2.9-6.4h-2.3l0.2,6.5h-6.8
			l0.3-6.4l-0.3-15.4l10.3,0c2.4,0,4.3,0.6,5.6,1.7c1.3,1.2,2,2.8,2,5c0,1.3-0.3,2.5-1,3.6c-0.6,1.1-1.5,2.1-2.7,2.9
			C574.3,113.1,576,115.5,577.6,117.6z M568.6,102.8c-0.5-0.4-1.2-0.7-2.2-0.7l-1.2,0.1l-0.1,5.6l2.5,0.1c0.6-0.3,1.1-0.7,1.4-1.2
			c0.3-0.5,0.4-1.1,0.4-1.9C569.3,103.9,569,103.2,568.6,102.8z"/>
		<path fill="#5B4C61" d="M594.5,98l-1.1,5.3l-0.4,0.3c-0.6-0.3-1.3-0.6-2-0.8c-0.8-0.2-1.5-0.3-2.1-0.3c-1.4,0-2.4,0.4-3,1.2
			c-0.6,0.8-0.9,2.1-0.9,4c0,2.2,0.3,3.8,1,4.8c0.7,1,1.8,1.5,3.3,1.5c1.5,0,2.8-0.2,4.1-0.7l0.5,0.3l-0.5,5.3
			c-1.3,0.4-2.9,0.6-4.7,0.6c-3.6,0-6.3-0.9-8.1-2.8c-1.8-1.9-2.7-4.6-2.7-8.2c0-3.6,1-6.4,2.9-8.4c2-2,4.7-3,8.3-3
			C591,97.1,592.8,97.4,594.5,98z"/>
		<path fill="#5B4C61" d="M612.3,114.3l-0.4,4.9h-15.3l0.3-6.4l-0.3-15.4h15.6l0.4,0.5l-0.4,4.9l-5.3-0.2h-3.5l-0.1,3.1h3.3l3.5-0.1
			l0.4,0.5L610,111l-3.9-0.1h-3l0,1.3l0.1,1.9h3.2l5.6-0.2L612.3,114.3z"/>
		<path fill="#5B4C61" d="M630.7,99.2c1.3,1.2,2,2.9,2,5.1c0,1.7-0.4,3.2-1.2,4.6c-0.8,1.3-1.9,2.3-3.4,3.1
			c-1.5,0.7-3.2,1.1-5.1,1.1h-1.6l0.2,6.1h-6.8l0.3-6.4l-0.3-15.4l10.3,0C627.5,97.4,629.4,98,630.7,99.2z M625.2,107
			c0.3-0.5,0.4-1.2,0.4-2c0-1-0.2-1.7-0.7-2.2c-0.5-0.5-1.2-0.7-2.2-0.8l-1.2,0.1l-0.1,6l2.5,0.1C624.4,108,624.9,107.6,625.2,107z"
			/>
		<path fill="#5B4C61" d="M649.8,102.8l-4.4-0.2H645l-0.2,9.5l0.3,7.1h-6.7l0.3-6.4l-0.2-10.2h-0.4l-4.5,0.2l-0.4-0.5l0.4-4.9h16.2
			l0.4,0.5L649.8,102.8z"/>
		<path fill="#5B4C61" d="M659.2,119.2h-6.8l0.3-6.4l-0.3-15.4h6.9l-0.4,14.7L659.2,119.2z"/>
		<path fill="#5B4C61" d="M680.2,99.9c1.7,1.9,2.6,4.5,2.6,7.9c0,3.8-0.9,6.7-2.8,8.7c-1.9,2.1-4.6,3.1-8,3.1
			c-3.2,0-5.6-0.9-7.3-2.8c-1.7-1.9-2.6-4.6-2.6-8c0-3.7,0.9-6.6,2.8-8.6c1.9-2,4.6-3,8-3C676,97,678.5,98,680.2,99.9z M670.3,102.9
			c-0.4,0.3-0.8,0.8-1,1.6c-0.2,0.8-0.3,1.9-0.3,3.3c0,1.9,0.1,3.3,0.3,4.2c0.2,1,0.5,1.6,1,2s1.2,0.6,2.1,0.6c0.9,0,1.5-0.2,2-0.5
			c0.4-0.3,0.8-0.8,1-1.6c0.2-0.8,0.3-1.9,0.3-3.3c0-1.8-0.1-3.2-0.3-4.2c-0.2-1-0.5-1.6-1-2c-0.5-0.4-1.2-0.6-2.1-0.6
			C671.4,102.4,670.7,102.6,670.3,102.9z"/>
		<path fill="#5B4C61" d="M705.1,119.2h-7.3l-6.1-11.6h-0.4l0,3.8l0.3,7.9h-6.1l0.3-6.4l-0.3-15.4h7.3l6.1,11.6h0.4L699,97.7
			l6.2-0.4l-0.4,14.8L705.1,119.2z"/>
		<path fill="#5B4C61" d="M732.5,99.9c1.7,1.9,2.6,4.5,2.6,7.9c0,3.8-0.9,6.7-2.8,8.7c-1.9,2.1-4.6,3.1-8,3.1
			c-3.2,0-5.6-0.9-7.3-2.8c-1.7-1.9-2.6-4.6-2.6-8c0-3.7,0.9-6.6,2.8-8.6c1.9-2,4.6-3,8-3C728.3,97,730.7,98,732.5,99.9z
			 M722.5,102.9c-0.4,0.3-0.8,0.8-1,1.6c-0.2,0.8-0.3,1.9-0.3,3.3c0,1.9,0.1,3.3,0.3,4.2c0.2,1,0.5,1.6,1,2s1.2,0.6,2.1,0.6
			c0.9,0,1.5-0.2,2-0.5c0.4-0.3,0.8-0.8,1-1.6c0.2-0.8,0.3-1.9,0.3-3.3c0-1.8-0.1-3.2-0.3-4.2c-0.2-1-0.5-1.6-1-2
			c-0.5-0.4-1.2-0.6-2.1-0.6C723.7,102.4,723,102.6,722.5,102.9z"/>
		<path fill="#5B4C61" d="M744.3,106.5h2.3l3.9-0.1l0.4,0.5l-0.4,4.9l-4.3-0.1h-1.9v0.4l0.3,7.1h-6.8l0.3-6.4l-0.3-15.4h14.5
			l0.4,0.5l-0.4,4.9l-5.4-0.2h-2.4L744.3,106.5z"/>
		<path fill="#5B4C61" d="M772.2,119.2l-0.6-3.6l0-0.1l-3.3-0.1l-2.8,0.1l-0.6,3.6h-6.6l6.6-21.7h8.1l5.9,21.7H772.2z M769,103.5
			h-0.4l-1.9,7.1l1.9,0l1.9,0L769,103.5z"/>
		<path fill="#5B4C61" d="M398.9,146.8l-1.5,7.8l-1.3,0.6c-1.3-0.8-2.7-1.5-4-2c-1.3-0.5-2.4-0.7-3.2-0.7c-0.7,0-1.3,0.1-1.8,0.4
			c-0.4,0.3-0.6,0.7-0.6,1.2c0,0.6,0.3,1.1,1,1.6c0.7,0.4,1.8,1,3.3,1.7c1.8,0.8,3.3,1.5,4.4,2.2c1.2,0.7,2.2,1.6,3,2.8
			c0.9,1.2,1.3,2.7,1.3,4.4c0,2-0.5,3.7-1.6,5.3c-1.1,1.6-2.6,2.8-4.6,3.8c-2,0.9-4.3,1.4-6.9,1.4c-3.3,0-6.7-0.6-10.3-1.8l1.4-8.4
			l1-0.6c1.5,1.1,3,2,4.7,2.7c1.7,0.7,3.1,1,4.2,1c1.7,0,2.5-0.5,2.5-1.6c0-0.7-0.3-1.2-1-1.7c-0.7-0.5-1.8-1-3.3-1.7
			c-1.8-0.8-3.2-1.5-4.3-2.2c-1.1-0.7-2.1-1.6-3-2.8c-0.8-1.2-1.2-2.7-1.2-4.4c0-2,0.5-3.8,1.6-5.4c1.1-1.6,2.6-2.9,4.6-3.8
			c2-0.9,4.2-1.4,6.7-1.4C392.9,145.2,395.9,145.7,398.9,146.8z"/>
		<path fill="#5B4C61" d="M418.5,156.8c1.3,1.2,2,2.9,2,5.1c0,1.7-0.4,3.2-1.2,4.6c-0.8,1.3-1.9,2.3-3.4,3.1
			c-1.5,0.7-3.2,1.1-5.1,1.1h-1.6l0.2,6.1h-6.8l0.3-6.4l-0.3-15.4l10.3,0C415.3,155,417.2,155.6,418.5,156.8z M413,164.6
			c0.3-0.5,0.4-1.2,0.4-2c0-1-0.2-1.7-0.7-2.2c-0.5-0.5-1.2-0.7-2.2-0.8l-1.2,0.1l-0.1,6l2.5,0.1C412.3,165.6,412.7,165.2,413,164.6
			z"/>
		<path fill="#5B4C61" d="M429.2,176.8h-6.8l0.3-6.4l-0.3-15.4h6.9l-0.4,14.7L429.2,176.8z"/>
		<path fill="#5B4C61" d="M453.2,176.8h-7.3l-6.1-11.6h-0.4l0,3.8l0.3,7.9h-6.1l0.3-6.4l-0.3-15.4h7.3l6.1,11.6h0.4l-0.2-11.4
			l6.2-0.4l-0.4,14.8L453.2,176.8z"/>
		<path fill="#5B4C61" d="M477.1,176.8h-7.3l-6.1-11.6h-0.4l0,3.8l0.3,7.9h-6.1l0.3-6.4l-0.3-15.4h7.3l6.1,11.6h0.4l-0.2-11.4
			l6.2-0.4l-0.4,14.8L477.1,176.8z"/>
		<path fill="#5B4C61" d="M487.9,176.8h-6.8l0.3-6.4l-0.3-15.4h6.9l-0.4,14.7L487.9,176.8z"/>
		<path fill="#5B4C61" d="M511.9,176.8h-7.3l-6.1-11.6h-0.4l0,3.8l0.3,7.9h-6.1l0.3-6.4l-0.3-15.4h7.3l6.1,11.6h0.4l-0.2-11.4
			l6.2-0.4l-0.4,14.8L511.9,176.8z"/>
		<path fill="#5B4C61" d="M533.1,155.7l-1.4,5.9h-0.5c-1.1-0.6-2.1-1-2.9-1.2c-0.8-0.2-1.7-0.4-2.7-0.4c-1,0-1.8,0.2-2.4,0.5
			c-0.5,0.3-0.9,0.9-1.2,1.8c-0.2,0.9-0.4,2.1-0.4,3.7c0,1.6,0.1,2.9,0.4,3.7c0.2,0.9,0.7,1.5,1.3,1.8c0.6,0.3,1.5,0.5,2.6,0.5
			c0.3,0,0.7,0,1.2-0.1v-1.1l-0.1-3.7l6.1-0.4l-0.1,3v5.9c-2.6,1-5.2,1.5-7.8,1.5c-3.5,0-6.2-0.9-8-2.8c-1.8-1.9-2.7-4.5-2.7-8
			c0-3.8,1.1-6.7,3.2-8.7s5.1-3,9.1-3C529.3,154.7,531.4,155,533.1,155.7z"/>
		<path fill="#5B4C61" d="M570.8,174.5l-0.1,1.1c-3.3,1-6.5,1.6-9.6,1.8l-0.9-0.8c-2-4.4-3.4-7.4-4.1-9.1h-3.2l0.3,9.3h-9.6l0.5-9.1
			l-0.5-21.9l14.7,0c3.5,0,6.2,0.8,8.1,2.5c1.9,1.6,2.8,4,2.8,7.1c0,1.8-0.5,3.5-1.4,5.1c-0.9,1.6-2.2,3-3.8,4.1
			C566.2,168.1,568.5,171.5,570.8,174.5z M557.9,153.4c-0.7-0.6-1.7-1-3.2-1l-1.7,0.1l-0.2,8l3.5,0.2c0.9-0.4,1.6-1,2-1.7
			c0.4-0.7,0.6-1.6,0.6-2.8C558.9,155,558.6,154,557.9,153.4z"/>
		<path fill="#5B4C61" d="M589.6,157.5c1.7,1.9,2.6,4.5,2.6,7.9c0,3.8-0.9,6.7-2.8,8.7c-1.9,2.1-4.6,3.1-8,3.1
			c-3.2,0-5.6-0.9-7.3-2.8c-1.7-1.9-2.6-4.6-2.6-8c0-3.7,0.9-6.6,2.8-8.6c1.9-2,4.6-3,8-3C585.4,154.6,587.9,155.6,589.6,157.5z
			 M579.7,160.5c-0.4,0.3-0.8,0.8-1,1.6c-0.2,0.8-0.3,1.9-0.3,3.3c0,1.9,0.1,3.3,0.3,4.2c0.2,1,0.5,1.6,1,2s1.2,0.6,2.1,0.6
			c0.9,0,1.5-0.2,2-0.5c0.4-0.3,0.8-0.8,1-1.6c0.2-0.8,0.3-1.9,0.3-3.3c0-1.8-0.1-3.2-0.3-4.2c-0.2-1-0.5-1.6-1-2
			c-0.5-0.4-1.2-0.6-2.1-0.6C580.8,160,580.1,160.2,579.7,160.5z"/>
		<path fill="#5B4C61" d="M610.7,156.8c1.3,1.2,2,2.9,2,5.1c0,1.7-0.4,3.2-1.2,4.6c-0.8,1.3-1.9,2.3-3.4,3.1
			c-1.5,0.7-3.2,1.1-5.1,1.1h-1.6l0.2,6.1h-6.8l0.3-6.4l-0.3-15.4l10.3,0C607.5,155,609.4,155.6,610.7,156.8z M605.2,164.6
			c0.3-0.5,0.4-1.2,0.4-2c0-1-0.2-1.7-0.7-2.2c-0.5-0.5-1.2-0.7-2.2-0.8l-1.2,0.1l-0.1,6l2.5,0.1
			C604.5,165.6,604.9,165.2,605.2,164.6z"/>
		<path fill="#5B4C61" d="M630.4,171.9l-0.4,4.9h-15.3l0.3-6.4l-0.3-15.4h15.6l0.4,0.5l-0.4,4.9l-5.3-0.2h-3.5l-0.1,3.1h3.3l3.5-0.1
			l0.4,0.5l-0.4,4.9l-3.9-0.1h-3l0,1.3l0.1,1.9h3.2l5.6-0.2L630.4,171.9z"/>
	</g>
</g>
<g>
	<rect x="575.9" y="235.8" fill="none" width="227" height="48.9"/>
	<text transform="matrix(1 0 0 1 576.386 254.0137)" fill="#696969" font-family="'OpenSans-Light'" font-size="24">sensory memory gap</text>
</g>
<rect x="676.3" y="380.3" fill="none" width="146.7" height="93.5"/>
<text transform="matrix(1 0 0 1 677.488 398.5271)"><tspan x="0" y="0" fill="#696969" font-family="'OpenSans-Light'" font-size="24">1 full rotation </tspan><tspan x="3.4" y="28.8" fill="#696969" font-family="'OpenSans-Light'" font-size="24">every 120ms</tspan></text>
<circle fill="#D8CEBF" cx="495.2" cy="400.8" r="99"/>
<rect x="421.3" y="380.3" fill="none" width="146.7" height="93.5"/>
<text transform="matrix(1 0 0 1 422.488 398.5271)"><tspan x="0" y="0" fill="#696969" font-family="'OpenSans-Light'" font-size="24">1 full rotation </tspan><tspan x="3.4" y="28.8" fill="#696969" font-family="'OpenSans-Light'" font-size="24">every 100ms</tspan></text>
<line opacity="0.8" fill="none" stroke="#13ADBC" stroke-width="2" stroke-miterlimit="10" stroke-dasharray="10" x1="659.5" y1="271.3" x2="673.3" y2="348.3"/>
</svg>
