<?xml version="1.0" encoding="utf-8"?>
<!-- Generator: Adobe Illustrator 18.1.0, SVG Export Plug-In . SVG Version: 6.00 Build 0)  -->
<!DOCTYPE svg PUBLIC "-//W3C//DTD SVG 1.1//EN" "http://www.w3.org/Graphics/SVG/1.1/DTD/svg11.dtd">
<svg version="1.1" id="Layer_1" xmlns="http://www.w3.org/2000/svg" xmlns:xlink="http://www.w3.org/1999/xlink" x="0px" y="0px"
	 viewBox="0 0 750 511" enable-background="new 0 0 750 511" xml:space="preserve">
<g>
	<defs>
		<path id="SVGID_1_" d="M570.8,101H352c-5.6,0-7.7-4-8.6-7.1c-0.1-1.2-0.3-2.3-0.5-3.5v0l0,0c-2.5-10.5-12-18.4-23.2-18.4H195.4
			c-10.7,0-19.8,7.1-22.8,16.9c0,0,0,0,0,0c-2.6,8.2-6.2,11.2-8.6,12.3c-1,0.1-1.9,0.3-2.8,0.6c0,0,0,0,0,0l0,0
			c-7.8,2.2-13.6,9.5-13.6,18v49.6c0,10.3,8.4,18.7,18.7,18.7h404.6c10.3,0,18.7-8.4,18.7-18.7v-49.6
			C589.5,109.4,581.1,101,570.8,101z"/>
	</defs>
	<clipPath id="SVGID_2_">
		<use xlink:href="#SVGID_1_"  overflow="visible"/>
	</clipPath>
	<g clip-path="url(#SVGID_2_)">
		<rect x="731.1" y="108.3" transform="matrix(-0.9053 -0.4249 0.4249 -0.9053 1312.0229 844.1902)" width="38" height="335"/>
		
			<rect x="696.7" y="92.2" transform="matrix(-0.9053 -0.4249 0.4249 -0.9053 1253.342 798.8146)" fill="#FFFFFF" width="38" height="335"/>
		<rect x="662.3" y="76" transform="matrix(-0.9053 -0.4249 0.4249 -0.9053 1194.6613 753.4392)" width="38" height="335"/>
		
			<rect x="627.9" y="59.9" transform="matrix(-0.9053 -0.4249 0.4249 -0.9053 1135.9802 708.0637)" fill="#FFFFFF" width="38" height="335"/>
		<rect x="593.5" y="43.7" transform="matrix(-0.9053 -0.4249 0.4249 -0.9053 1077.2994 662.6882)" width="38" height="335"/>
		
			<rect x="559.1" y="27.6" transform="matrix(-0.9053 -0.4249 0.4249 -0.9053 1018.6186 617.3127)" fill="#FFFFFF" width="38" height="335"/>
		<rect x="524.7" y="11.4" transform="matrix(-0.9053 -0.4249 0.4249 -0.9053 959.9377 571.9372)" width="38" height="335"/>
		
			<rect x="490.3" y="-4.7" transform="matrix(-0.9053 -0.4249 0.4249 -0.9053 901.2568 526.5617)" fill="#FFFFFF" width="38" height="335"/>
		<rect x="455.9" y="-20.8" transform="matrix(-0.9053 -0.4249 0.4249 -0.9053 842.576 481.1862)" width="38" height="335"/>
		
			<rect x="421.5" y="-37" transform="matrix(-0.9053 -0.4249 0.4249 -0.9053 783.8951 435.8107)" fill="#FFFFFF" width="38" height="335"/>
		<rect x="387.1" y="-53.1" transform="matrix(-0.9053 -0.4249 0.4249 -0.9053 725.2143 390.4352)" width="38" height="335"/>
		
			<rect x="352.7" y="-69.3" transform="matrix(-0.9053 -0.4249 0.4249 -0.9053 666.5334 345.0597)" fill="#FFFFFF" width="38" height="335"/>
		<rect x="318.3" y="-85.4" transform="matrix(-0.9053 -0.4249 0.4249 -0.9053 607.8525 299.6842)" width="38" height="335"/>
		
			<rect x="283.9" y="-101.6" transform="matrix(-0.9053 -0.4249 0.4249 -0.9053 549.1716 254.3087)" fill="#FFFFFF" width="38" height="335"/>
		<rect x="249.5" y="-117.7" transform="matrix(-0.9053 -0.4249 0.4249 -0.9053 490.4908 208.9332)" width="38" height="335"/>
		
			<rect x="215.1" y="-133.9" transform="matrix(-0.9053 -0.4249 0.4249 -0.9053 431.8099 163.5577)" fill="#FFFFFF" width="38" height="335"/>
		<rect x="180.7" y="-150" transform="matrix(-0.9053 -0.4249 0.4249 -0.9053 373.1291 118.1822)" width="38" height="335"/>
		
			<rect x="146.3" y="-166.1" transform="matrix(-0.9053 -0.4249 0.4249 -0.9053 314.4482 72.8067)" fill="#FFFFFF" width="38" height="335"/>
	</g>
</g>
<path fill="#CC6699" d="M583.7,435H160.3c-13.9,0-25.3-11.4-25.3-25.3l-9-260.5c0-13.9,11.4-25.3,25.3-25.3h440.5
	c13.9,0,25.3,11.4,25.3,25.3l-8,260.5C609,423.6,597.6,435,583.7,435z"/>
<path opacity="0.5" d="M570.8,101H352c-5.6,0-7.7-4-8.6-7.1c-0.1-1.2-0.3-2.3-0.5-3.5v0l0,0c-2.5-10.5-12-18.4-23.2-18.4H195.4
	c-10.7,0-19.8,7.1-22.8,16.9c0,0,0,0,0,0c-2.6,8.2-6.2,11.2-8.6,12.3c-1,0.1-1.9,0.3-2.8,0.6c0,0,0,0,0,0l0,0
	c-7.8,2.2-13.6,9.5-13.6,18v49.6c0,10.3,8.4,18.7,18.7,18.7h404.6c10.3,0,18.7-8.4,18.7-18.7v-49.6C589.5,109.4,581.1,101,570.8,101
	z"/>
<g>
	<defs>
		<rect id="SVGID_3_" x="120" y="105" width="497" height="93"/>
	</defs>
	<clipPath id="SVGID_4_">
		<use xlink:href="#SVGID_3_"  overflow="visible"/>
	</clipPath>
	<g clip-path="url(#SVGID_4_)">
		<defs>
			<path id="SVGID_5_" d="M583.7,435H160.3c-13.9,0-25.3-11.4-25.3-25.3l-9-260.5c0-13.9,11.4-25.3,25.3-25.3h440.5
				c13.9,0,25.3,11.4,25.3,25.3l-8,260.5C609,423.6,597.6,435,583.7,435z"/>
		</defs>
		<clipPath id="SVGID_6_">
			<use xlink:href="#SVGID_5_"  overflow="visible"/>
		</clipPath>
		<g clip-path="url(#SVGID_6_)">
			<rect x="74.3" y="107.8" transform="matrix(0.9053 -0.4249 0.4249 0.9053 -108.128 65.7276)" width="38" height="335"/>
			
				<rect x="108.7" y="91.7" transform="matrix(0.9053 -0.4249 0.4249 0.9053 -98.0094 78.8133)" fill="#FFFFFF" width="38" height="335"/>
			<rect x="143.1" y="75.5" transform="matrix(0.9053 -0.4249 0.4249 0.9053 -87.8908 91.8989)" width="38" height="335"/>
			
				<rect x="177.5" y="59.4" transform="matrix(0.9053 -0.4249 0.4249 0.9053 -77.7722 104.9846)" fill="#FFFFFF" width="38" height="335"/>
			<rect x="211.9" y="43.2" transform="matrix(0.9053 -0.4249 0.4249 0.9053 -67.6536 118.0702)" width="38" height="335"/>
			
				<rect x="246.3" y="27.1" transform="matrix(0.9053 -0.4249 0.4249 0.9053 -57.535 131.1559)" fill="#FFFFFF" width="38" height="335"/>
			<rect x="280.7" y="10.9" transform="matrix(0.9053 -0.4249 0.4249 0.9053 -47.4164 144.2415)" width="38" height="335"/>
			
				<rect x="315.1" y="-5.2" transform="matrix(0.9053 -0.4249 0.4249 0.9053 -37.2978 157.3272)" fill="#FFFFFF" width="38" height="335"/>
			<rect x="349.5" y="-21.3" transform="matrix(0.9053 -0.4249 0.4249 0.9053 -27.1792 170.4129)" width="38" height="335"/>
			
				<rect x="383.9" y="-37.5" transform="matrix(0.9053 -0.4249 0.4249 0.9053 -17.0606 183.4985)" fill="#FFFFFF" width="38" height="335"/>
			<rect x="418.3" y="-53.6" transform="matrix(0.9053 -0.4249 0.4249 0.9053 -6.942 196.5842)" width="38" height="335"/>
			
				<rect x="452.7" y="-69.8" transform="matrix(0.9053 -0.4249 0.4249 0.9053 3.1766 209.6698)" fill="#FFFFFF" width="38" height="335"/>
			<rect x="487.1" y="-85.9" transform="matrix(0.9053 -0.4249 0.4249 0.9053 13.2952 222.7555)" width="38" height="335"/>
			
				<rect x="521.5" y="-102.1" transform="matrix(0.9053 -0.4249 0.4249 0.9053 23.4138 235.8411)" fill="#FFFFFF" width="38" height="335"/>
			<rect x="555.9" y="-118.2" transform="matrix(0.9053 -0.4249 0.4249 0.9053 33.5324 248.9268)" width="38" height="335"/>
			
				<rect x="590.3" y="-134.4" transform="matrix(0.9053 -0.4249 0.4249 0.9053 43.651 262.0125)" fill="#FFFFFF" width="38" height="335"/>
			<rect x="624.7" y="-150.5" transform="matrix(0.9053 -0.4249 0.4249 0.9053 53.7696 275.0981)" width="38" height="335"/>
			
				<rect x="659.1" y="-166.6" transform="matrix(0.9053 -0.4249 0.4249 0.9053 63.8882 288.1837)" fill="#FFFFFF" width="38" height="335"/>
		</g>
	</g>
</g>
</svg>
